<svg width="96" height="105" viewBox="0 0 96 105" fill="none" xmlns="http://www.w3.org/2000/svg">
<path d="M73.6194 73.1408C85.3828 55.8837 89.4121 38.1402 82.6191 33.5097C75.826 28.8791 60.783 39.1151 49.0196 56.3722C37.2561 73.6294 33.2268 91.3729 40.0199 96.0034C46.8129 100.634 61.8559 90.398 73.6194 73.1408Z" fill="#303646"/>
<path d="M71.5956 71.7623C83.359 54.5052 87.7868 37.0333 81.4853 32.7379C75.1839 28.4425 60.5394 38.95 48.7759 56.2072C37.0125 73.4643 32.5847 90.9362 38.8862 95.2316C45.1876 99.527 59.8321 89.0195 71.5956 71.7623Z" fill="white"/>
<path d="M69.693 70.4662C80.09 55.2137 84.0036 39.7715 78.4342 35.9751C72.8649 32.1787 59.9216 41.4658 49.5246 56.7183C39.1276 71.9708 35.2141 87.413 40.7834 91.2094C46.3528 95.0058 59.2961 85.7188 69.693 70.4662Z" fill="#CD2B31"/>
<path d="M67.327 68.8487C75.7907 56.4323 78.9765 43.8614 74.4425 40.7708C69.9086 37.6802 59.3719 45.2403 50.9082 57.6568C42.4445 70.0732 39.2587 82.6441 43.7927 85.7347C48.3266 88.8253 58.8633 81.2652 67.327 68.8487Z" fill="white"/>
<path d="M66.013 67.0818C72.892 57.0006 75.4841 46.7917 71.8027 44.2797C68.1212 41.7676 59.5603 47.9036 52.6813 57.9848C45.8024 68.066 43.2102 78.2748 46.8917 80.7869C50.5731 83.299 59.134 77.163 66.013 67.0818Z" fill="#CD2B31"/>
<path d="M62.5646 65.6058C67.1619 58.8616 68.892 52.0332 66.4289 50.3543C63.9659 48.6753 58.2423 52.7815 53.6451 59.5258C49.0478 66.27 47.3178 73.0983 49.7808 74.7773C52.2439 76.4563 57.9674 72.3501 62.5646 65.6058Z" fill="white"/>
<path d="M61.1925 63.7934C63.5129 60.3929 64.3869 56.949 63.1446 56.1013C61.9023 55.2537 59.0142 57.3232 56.6938 60.7237C54.3735 64.1242 53.4995 67.5681 54.7417 68.4157C55.984 69.2634 58.8721 67.1939 61.1925 63.7934Z" fill="#CD2B31"/>
<path d="M55.8442 56.3302C54.6941 57.1225 51.3371 59.1867 51.2428 59.6828C51.1486 60.1789 54.6512 60.2163 55.0639 59.4431C55.4767 58.6698 55.8442 56.3302 55.8442 56.3302Z" fill="#BAB3B4"/>
<path d="M5.24411 10.9182C5.58421 10.8932 9.69147 10.7085 10.4684 11.1518C10.9853 11.485 11.4098 11.9431 11.7029 12.4838C8.93871 12.943 7.23361 13.2243 6.33328 12.2761C5.86604 11.7809 5.50109 11.439 5.30359 11.2241C5.10609 11.0091 5.07978 10.9326 5.24411 10.9182Z" fill="white"/>
<path opacity="0.09" d="M5.24415 10.9182C5.58424 10.8932 9.69151 10.7085 10.4684 11.1518C10.0843 11.5662 6.42514 12.2422 5.30363 11.2241C5.12514 11.0245 5.07982 10.9326 5.24415 10.9182Z" fill="#1F1F39"/>
<path d="M4.07074 9.60943C4.40704 9.58064 8.51815 9.39975 9.29127 9.83927C9.81764 10.1843 10.2466 10.6587 10.537 11.2171C7.77281 11.6763 6.05633 11.9309 5.15609 10.9674C4.69268 10.4683 4.32777 10.1303 4.13027 9.91534C3.93276 9.70039 3.90643 9.62003 4.07074 9.60943Z" fill="white"/>
<path opacity="0.09" d="M4.07073 9.60944C4.40703 9.58065 8.51813 9.39976 9.29126 9.83928C8.9071 10.2536 6.81826 10.8653 4.13026 9.91535C3.94413 9.71574 3.90642 9.62004 4.07073 9.60944Z" fill="#1F1F39"/>
<path d="M2.75695 8.07828C3.40011 8.23367 4.06424 8.28359 4.7234 8.2261L4.75012 8.22624C6.13724 8.12656 7.58901 8.08834 7.97748 8.30811C8.53644 8.70222 8.98799 9.22983 9.29108 9.84293C6.52691 10.3059 4.74253 10.4035 3.84232 9.43237C3.37892 8.93336 3.014 8.59531 2.8165 8.38036L2.75573 8.31127C2.62282 8.1616 2.61174 8.08897 2.75695 8.07828Z" fill="white"/>
<path opacity="0.09" d="M2.75695 8.07828C3.40011 8.23367 4.06424 8.28359 4.7234 8.2261L4.75012 8.22624C6.16388 8.1458 7.63082 8.12676 8.01929 8.34653C7.63513 8.76088 4.95965 9.06389 2.85447 8.42257L2.75571 8.3151C2.62282 8.16161 2.61174 8.08897 2.75695 8.07828Z" fill="#1F1F39"/>
<path d="M1.44699 6.57422C1.78709 6.54927 5.89435 6.36454 6.67129 6.80407C7.22291 7.19137 7.67136 7.70781 7.97745 8.3083C5.2133 8.76747 3.43259 8.89564 2.53616 7.93216C2.06892 7.43695 1.70397 7.09507 1.50647 6.88013C1.30896 6.66518 1.28268 6.58482 1.44699 6.57422Z" fill="white"/>
<path opacity="0.23" d="M1.44727 6.57416C1.78736 6.5492 5.89463 6.36447 6.67157 6.80401C6.28742 7.21836 3.52839 6.69968 1.50675 6.88006C1.32826 6.6805 1.28296 6.58476 1.44727 6.57416Z" fill="#1F1F39"/>
<path d="M5.85292 5.54671C5.86915 5.81223 5.95619 6.06857 6.10497 6.28908C6.9381 7.66859 53.3883 59.9155 53.4672 60.1718C53.467 60.21 53.5318 60.2295 53.6158 60.2337C53.7331 60.2388 53.8505 60.2252 53.9636 60.1935C54.5297 60.059 55.3151 59.5971 54.8532 58.8269C54.812 58.7567 54.765 58.69 54.7129 58.6275C54.7129 58.6275 8.84803 5.47839 7.76183 5.01049C6.90049 4.63927 5.84543 4.79035 5.85292 5.54671Z" fill="#543237"/>
<path d="M12.3477 4.61835C12.2772 4.95031 11.5607 8.9994 11.8963 9.82625C12.1593 10.3835 12.5589 10.8651 13.0579 11.2266C13.8741 8.55697 14.387 6.8904 13.5519 5.8814C13.1192 5.35581 12.831 4.9494 12.6412 4.73067C12.4514 4.51195 12.3791 4.45427 12.3477 4.61835Z" fill="white"/>
<path opacity="0.09" d="M12.3476 4.61826C12.2771 4.95022 11.5607 8.99931 11.8963 9.82616C12.3564 9.5077 13.5057 5.95746 12.6412 4.71912C12.4667 4.50429 12.3791 4.45417 12.3476 4.61826Z" fill="#1F1F39"/>
<path d="M11.2012 3.27918C11.1307 3.61114 10.4142 7.66022 10.7498 8.48706C11.0235 9.05302 11.4379 9.53921 11.9533 9.89907C12.7695 7.22947 13.2443 5.55123 12.4055 4.53458C11.9728 4.00899 11.6846 3.60258 11.4947 3.38385C11.3049 3.16512 11.2326 3.11891 11.2012 3.27918Z" fill="white"/>
<path opacity="0.09" d="M11.2012 3.27912C11.1307 3.61107 10.4142 7.66015 10.7499 8.487C11.2099 8.16855 12.0875 6.16774 11.4948 3.37615C11.3202 3.16897 11.2326 3.11885 11.2012 3.27912Z" fill="#1F1F39"/>
<path d="M9.85309 1.7785C9.9256 2.43543 9.88986 3.09981 9.74727 3.74516C9.74727 3.74516 9.74717 3.76426 9.74711 3.77572C9.46878 5.13412 9.23972 6.56918 9.40942 6.98643C9.72717 7.59087 10.1905 8.10661 10.7576 8.48706C11.5737 5.81745 11.9039 4.0506 11.065 3.03394C10.6323 2.50454 10.3442 2.09812 10.1581 1.88324L10.0974 1.81416C9.95305 1.65679 9.8844 1.63352 9.85309 1.7785Z" fill="white"/>
<path opacity="0.09" d="M9.85298 1.77845C9.92549 2.43538 9.88975 3.09975 9.74716 3.74511C9.74716 3.74511 9.74706 3.7642 9.747 3.77566C9.48379 5.1647 9.27373 6.61514 9.44345 7.02858C9.90351 6.71012 10.5514 4.08547 10.1884 1.92154L10.0973 1.80647C9.95294 1.65674 9.88429 1.63346 9.85298 1.77845Z" fill="#1F1F39"/>
<path d="M8.53145 0.281885C8.46093 0.617661 7.74449 4.66674 8.08396 5.48979C8.39392 6.08909 8.84639 6.60303 9.40158 6.98643C10.2177 4.31683 10.5708 2.55392 9.73954 1.5373C9.30684 1.01172 9.0187 0.605303 8.82886 0.386577C8.63901 0.16785 8.56667 0.121637 8.53145 0.281885Z" fill="white"/>
<path opacity="0.23" d="M8.53145 0.281761C8.46093 0.617536 7.74449 4.66662 8.08396 5.48966C8.54401 5.17121 8.38685 2.3628 8.82888 0.382628C8.65428 0.171622 8.56667 0.121512 8.53145 0.281761Z" fill="#1F1F39"/>
<path opacity="0.47" d="M5.85303 5.54675C5.86925 5.81227 5.95629 6.06861 6.10508 6.28912C6.93821 7.66863 53.3884 59.9155 53.4673 60.1719C53.4898 60.2484 53.7037 60.2571 53.9637 60.1936C48.5997 53.8245 10.229 10.2223 5.85303 5.54675Z" fill="#1F1F39"/>
<path d="M51.0317 59.8574C50.7569 60.5359 57.6179 64.0708 58.3066 63.8567L58.3334 63.8568C58.8584 63.5349 56.2374 56.3704 55.8441 56.3416C55.4508 56.3128 54.6497 58.2988 53.8319 59.089L53.8128 59.0889C52.9989 59.8601 51.2214 59.3771 51.0317 59.8574Z" fill="white"/>
<path opacity="0.22" d="M51.0318 59.8573C50.757 60.5358 57.618 64.0707 58.3067 63.8566C56.6879 61.518 54.9399 59.7785 53.8128 59.0926C52.999 59.86 51.2215 59.377 51.0318 59.8573Z" fill="#1F1F39"/>
</svg>
