<svg width="506" height="698" viewBox="0 0 506 698" fill="none" xmlns="http://www.w3.org/2000/svg">
<g filter="url(#filter0_d_1189_2)">
<path d="M58.4343 110.298L7.81699 83.6075C6.98487 83.1696 6.24738 82.5718 5.64683 81.8482C5.04628 81.1247 4.59448 80.2898 4.31734 79.3912C4.0402 78.4927 3.94317 77.5483 4.03182 76.6122C4.12048 75.6761 4.39307 74.7667 4.83396 73.9362L41.8235 3.81925C42.7144 2.14096 44.2334 0.883497 46.0485 0.321609C47.8636 -0.240279 49.8273 -0.0609113 51.5106 0.820519L83.6802 17.7767L95 56.509L68.1213 107.299C67.2304 108.977 65.7115 110.235 63.8964 110.797C62.0813 111.359 60.1176 111.179 58.4343 110.298V110.298Z" fill="#029491"/>
<g opacity="0.3">
<path d="M83.6803 17.7761L73.2554 37.4955C72.4342 39.0601 72.2656 40.8861 72.7862 42.5746C73.3069 44.2631 74.4746 45.677 76.0343 46.5074L95.0001 56.5084L83.6803 17.7761Z" fill="white"/>
</g>
<g opacity="0.2">
<path d="M72.5477 39.3643C71.7699 40.8641 71.5281 42.5847 71.8622 44.2409C72.1962 45.897 73.0862 47.3893 74.3846 48.4704L74.9341 48.9257C77.1792 50.6841 91.9374 62.1923 92.2043 61.8155C92.4712 61.4387 94.9989 56.5088 94.9989 56.5088L76.0331 46.5078C76.0331 46.5078 71.3231 43.8388 72.5477 39.3643Z" fill="black"/>
</g>
<path d="M69.3769 34.4503C69.2356 34.7015 63.8975 32.1424 57.4291 28.7198C50.9606 25.2971 45.8266 22.3455 45.9993 22.0786C46.1721 21.8117 51.4944 24.3865 57.9629 27.8091C64.4313 31.2318 69.5496 34.1991 69.3769 34.4503Z" fill="#FAFAFA"/>
<path d="M78.6097 53.6515C78.4841 53.9027 69.7391 49.5538 59.0944 43.9331C48.4497 38.3125 39.9402 33.4925 40.0658 33.2413C40.1914 32.9901 48.9364 37.3391 59.5811 42.9597C70.2258 48.5804 78.751 53.3375 78.6097 53.6515Z" fill="#FAFAFA"/>
<path d="M77.1646 64.7361C77.039 64.9873 67.5247 60.2301 55.9223 54.0914C44.3199 47.9526 35.0097 42.8029 35.151 42.5517C35.2923 42.3005 44.8066 47.0577 56.409 53.1808C68.0114 59.3038 77.3059 64.4849 77.1646 64.7361Z" fill="#FAFAFA"/>
<path d="M72.5348 73.5122C72.3935 73.7634 62.8792 69.0062 51.2767 62.8832C39.6743 56.7601 30.3798 51.5791 30.5211 51.3279C30.6624 51.0767 40.161 55.8338 51.7634 61.9569C63.3659 68.0799 72.6918 73.261 72.5348 73.5122Z" fill="#FAFAFA"/>
<path d="M67.886 82.3042C67.7604 82.5554 58.2461 77.7982 46.6437 71.6594C35.0413 65.5207 25.7468 60.371 25.8724 60.1198C25.998 59.8686 35.528 64.6415 47.1304 70.7488C58.7328 76.8562 67.9802 82.053 67.886 82.3042Z" fill="#FAFAFA"/>
<path d="M63.2711 91.0803C63.1298 91.3315 53.6155 86.5744 42.0288 80.4513C30.442 74.3282 21.1161 69.1472 21.2574 68.896C21.3987 68.6448 30.8973 73.4019 42.4998 79.525C54.1022 85.6481 63.3967 90.8291 63.2711 91.0803Z" fill="#FAFAFA"/>
</g>
<g filter="url(#filter1_d_1189_2)">
<path d="M264.84 78.2402C263.666 78.0719 262.607 77.4443 261.895 76.4954C261.183 75.5465 260.878 74.3539 261.045 73.1796L266.579 34.6746C266.753 33.7065 267.303 32.8469 268.11 32.284C268.916 31.721 269.913 31.5006 270.882 31.6709L274.496 32.1959C275.203 32.305 275.926 32.2164 276.585 31.9399C277.244 31.6635 277.814 31.2099 278.232 30.6296L279.239 29.1579C279.656 28.5775 280.226 28.124 280.885 27.8475C281.544 27.571 282.267 27.4824 282.974 27.5915L300.187 30.0616C300.834 30.1477 301.449 30.3955 301.976 30.782C302.502 31.1686 302.923 31.6815 303.199 32.2734L303.853 33.7365C304.128 34.3273 304.548 34.8394 305.072 35.2259C305.597 35.6124 306.211 35.8608 306.857 35.9483L328.76 39.0983C329.736 39.2065 330.63 39.6977 331.245 40.4641C331.86 41.2305 332.145 42.2096 332.039 43.1863L326.376 82.5607C326.293 83.1417 326.096 83.7007 325.796 84.2055C325.497 84.7104 325.101 85.1513 324.631 85.503C324.161 85.8547 323.626 86.1103 323.057 86.2552C322.488 86.4001 321.896 86.4315 321.315 86.3475L264.84 78.2402Z" fill="#455A64"/>
<g opacity="0.3">
<path d="M264.84 78.2402C263.666 78.0719 262.607 77.4443 261.895 76.4954C261.183 75.5465 260.878 74.3539 261.045 73.1796L266.579 34.6746C266.753 33.7065 267.303 32.8469 268.11 32.284C268.916 31.721 269.913 31.5006 270.882 31.6709L274.496 32.1959C275.203 32.305 275.926 32.2164 276.585 31.9399C277.244 31.6635 277.814 31.2099 278.232 30.6296L279.239 29.1579C279.656 28.5775 280.226 28.124 280.885 27.8475C281.544 27.571 282.267 27.4824 282.974 27.5915L300.187 30.0616C300.834 30.1477 301.449 30.3955 301.976 30.782C302.502 31.1686 302.923 31.6815 303.199 32.2734L303.853 33.7365C304.128 34.3273 304.548 34.8394 305.072 35.2259C305.597 35.6124 306.211 35.8608 306.857 35.9483L328.76 39.0983C329.736 39.2065 330.63 39.6977 331.245 40.4641C331.86 41.2305 332.145 42.2096 332.039 43.1863L326.376 82.5607C326.293 83.1417 326.096 83.7007 325.796 84.2055C325.497 84.7104 325.101 85.1513 324.631 85.503C324.161 85.8547 323.626 86.1103 323.057 86.2552C322.488 86.4001 321.896 86.4315 321.315 86.3475L264.84 78.2402Z" fill="black"/>
</g>
<path d="M304.662 35.6472L290.736 33.6075L289.824 31.103C289.511 30.2852 288.982 29.5672 288.294 29.0248C287.607 28.4825 286.785 28.136 285.917 28.0219L272.301 26.0683C271.185 25.8696 270.035 26.1198 269.102 26.7645C268.169 27.4091 267.528 28.3961 267.318 29.5108L267.095 31.103L261.07 72.9044C260.932 74.1883 261.307 75.4749 262.113 76.4839C262.919 77.4929 264.091 78.1427 265.373 78.2919L320.721 86.3131C321.994 86.5361 323.304 86.2456 324.364 85.5053C325.423 84.765 326.147 83.6351 326.375 82.3628L332.056 42.8766C332.118 42.4576 332.096 42.0306 331.993 41.6199C331.889 41.2093 331.705 40.8233 331.451 40.4841C331.198 40.1449 330.879 39.8593 330.515 39.6436C330.15 39.4279 329.747 39.2865 329.327 39.2275L304.662 35.6472Z" fill="#455A64"/>
<path d="M315.846 52.8257L282.921 48.0928L280.93 61.9444L313.855 66.6773L315.846 52.8257Z" fill="white"/>
<path d="M309.878 58.2132C309.878 58.3337 304.782 57.7054 298.534 56.8104C292.286 55.9153 287.234 55.0891 287.26 54.96C287.286 54.8309 292.355 55.4678 298.603 56.3628C304.851 57.2579 309.895 58.0927 309.878 58.2132Z" fill="#263238"/>
<path d="M309.456 61.1651C309.456 61.2856 304.361 60.6573 298.113 59.7623C291.865 58.8672 286.813 58.041 286.83 57.9119C286.847 57.7828 291.925 58.4197 298.173 59.3147C304.422 60.2098 309.474 61.0446 309.456 61.1651Z" fill="#263238"/>
<path d="M364.753 61.1309C364.391 61.2676 364.005 61.3315 363.618 61.3189C363.231 61.3063 362.851 61.2176 362.498 61.0577C362.146 60.8978 361.828 60.6699 361.564 60.3871C361.299 60.1043 361.093 59.7722 360.958 59.4097L351.835 35.5699C351.73 35.2682 351.686 34.9488 351.706 34.6301C351.725 34.3113 351.807 33.9995 351.947 33.7125C352.086 33.4255 352.282 33.1689 352.521 32.9574C352.76 32.746 353.039 32.5838 353.341 32.4802L355.578 31.6196C356.016 31.453 356.401 31.1703 356.69 30.8019C356.98 30.4335 357.164 29.9932 357.222 29.5282L357.326 28.3664C357.378 27.8995 357.56 27.4566 357.851 27.0872C358.141 26.7178 358.528 26.4366 358.969 26.275L369.607 22.1956C370.007 22.041 370.439 21.9883 370.864 22.0424C371.289 22.0965 371.694 22.2556 372.043 22.5054L372.903 23.1336C373.251 23.382 373.654 23.5402 374.078 23.5943C374.501 23.6484 374.932 23.5966 375.33 23.4435L388.894 18.2796C389.49 18.0304 390.16 18.0271 390.759 18.2707C391.357 18.5142 391.834 18.9846 392.087 19.5792L401.416 43.9612C401.554 44.3233 401.619 44.7091 401.607 45.0963C401.595 45.4836 401.506 45.8646 401.346 46.2174C401.186 46.5703 400.958 46.888 400.675 47.1521C400.391 47.4163 400.058 47.6217 399.695 47.7566L364.753 61.1309Z" fill="#029491"/>
<g opacity="0.3">
<path d="M364.752 61.1307C364.39 61.2674 364.004 61.3312 363.617 61.3187C363.23 61.3061 362.85 61.2173 362.497 61.0574C362.145 60.8976 361.827 60.6697 361.563 60.3869C361.298 60.1041 361.092 59.7719 360.957 59.4094L351.834 35.5697C351.729 35.2679 351.685 34.9486 351.705 34.6298C351.724 34.3111 351.806 33.9993 351.946 33.7123C352.086 33.4252 352.281 33.1686 352.52 32.9572C352.759 32.7457 353.038 32.5836 353.34 32.48L355.578 31.6193C356.016 31.4527 356.4 31.1701 356.689 30.8016C356.979 30.4332 357.163 29.9929 357.221 29.528L357.325 28.3661C357.377 27.8993 357.559 27.4563 357.85 27.087C358.14 26.7176 358.527 26.4364 358.968 26.2747L369.606 22.1953C370.006 22.0407 370.438 21.9881 370.863 22.0422C371.288 22.0963 371.693 22.2554 372.042 22.5051L372.902 23.1334C373.25 23.3817 373.653 23.54 374.077 23.5941C374.5 23.6481 374.931 23.5963 375.329 23.4432L388.893 18.2794C389.489 18.0301 390.159 18.0269 390.758 18.2704C391.356 18.5139 391.833 18.9844 392.086 19.579L401.415 43.9609C401.553 44.323 401.618 44.7088 401.606 45.0961C401.594 45.4833 401.505 45.8643 401.345 46.2172C401.185 46.57 400.957 46.8877 400.674 47.1519C400.39 47.4161 400.057 47.6215 399.694 47.7564L364.752 61.1307Z" fill="black"/>
</g>
<path d="M373.979 23.9768L365.372 27.2645L364.047 26.1198C363.608 25.7492 363.077 25.5053 362.509 25.4143C361.942 25.3233 361.361 25.3887 360.828 25.6034L352.394 28.8308C351.691 29.0804 351.116 29.5979 350.793 30.2703C350.471 30.9427 350.427 31.7155 350.673 32.4197L351.051 33.4008L360.957 59.2889C361.29 60.071 361.917 60.6904 362.704 61.0126C363.49 61.3349 364.372 61.334 365.157 61.0102L399.419 47.894C400.224 47.6164 400.885 47.0308 401.258 46.2658C401.631 45.5009 401.685 44.6192 401.408 43.8146L392.044 19.3552C391.842 18.8314 391.44 18.4093 390.927 18.1817C390.413 17.9542 389.831 17.9398 389.307 18.1417L373.979 23.9768Z" fill="#029491"/>
<path d="M385.878 30.2353L365.487 38.0422L368.771 46.6182L389.162 38.8112L385.878 30.2353Z" fill="white"/>
<path d="M384.176 35.2515C381.928 36.3555 379.614 37.3212 377.248 38.1432C374.94 39.11 372.574 39.9349 370.165 40.6132C372.403 39.5193 374.702 38.5539 377.05 37.7215C379.375 36.7577 381.754 35.9329 384.176 35.2515V35.2515Z" fill="#263238"/>
<path d="M384.875 37.0845C382.637 38.1769 380.338 39.1395 377.99 39.9676C375.657 40.9275 373.269 41.7466 370.838 42.4205C373.086 41.3164 375.4 40.3507 377.766 39.5287C380.084 38.5712 382.458 37.7549 384.875 37.0845V37.0845Z" fill="#263238"/>
</g>
<g filter="url(#filter2_d_1189_2)">
<path d="M462.556 337.723H162.824V562.945H462.556V337.723Z" fill="white"/>
<path d="M462.556 562.945C462.556 562.945 462.556 562.584 462.556 561.891C462.556 561.199 462.556 560.165 462.556 558.811C462.556 556.101 462.556 552.087 462.506 546.839C462.506 536.363 462.446 520.969 462.395 501.321C462.345 462.085 462.265 405.829 462.175 337.753L462.606 338.184L162.905 338.274L163.427 337.753C163.427 418.734 163.427 495.41 163.427 562.975L162.955 562.503L379.287 562.734L440.73 562.865L457.037 562.925H461.241H462.315H461.261H457.117L440.901 562.985L379.568 563.116L162.925 563.346H162.353V562.875C162.353 495.31 162.353 418.634 162.303 337.652V337.13H162.855L462.556 337.231H462.997V337.652C462.907 405.889 462.837 462.225 462.777 501.522C462.727 521.13 462.696 536.483 462.666 546.939C462.666 552.147 462.666 556.141 462.666 558.831C462.666 560.165 462.666 561.179 462.666 561.841C462.666 562.503 462.556 562.945 462.556 562.945Z" fill="#263238"/>
<path d="M461.051 365.308C460.801 365.341 460.55 365.357 460.298 365.359H458.07L449.521 365.449C442.105 365.509 431.358 365.539 418.091 365.529C391.539 365.529 354.872 365.339 314.371 365.007L210.651 364.174L179.211 363.924L170.672 363.823L168.444 363.763C168.194 363.792 167.941 363.792 167.691 363.763C167.94 363.718 168.192 363.701 168.444 363.713H170.672L179.211 363.623C186.637 363.562 197.375 363.532 210.651 363.532C237.193 363.532 273.87 363.733 314.381 364.064L418.091 364.897L449.531 365.138L458.07 365.248H460.298C460.55 365.242 460.803 365.262 461.051 365.308Z" fill="#263238"/>
<path d="M182.402 349.122C182.404 349.821 182.199 350.506 181.811 351.088C181.424 351.67 180.872 352.125 180.227 352.393C179.581 352.662 178.87 352.733 178.184 352.597C177.497 352.461 176.867 352.124 176.372 351.63C175.878 351.135 175.541 350.505 175.405 349.819C175.269 349.132 175.34 348.421 175.609 347.776C175.877 347.13 176.332 346.578 176.914 346.191C177.496 345.803 178.181 345.598 178.88 345.6C179.814 345.602 180.708 345.974 181.368 346.634C182.028 347.294 182.4 348.189 182.402 349.122Z" fill="#263238"/>
<path d="M196.522 349.122C196.524 349.821 196.318 350.505 195.931 351.087C195.544 351.669 194.993 352.123 194.348 352.392C193.703 352.661 192.992 352.733 192.306 352.597C191.62 352.462 190.99 352.127 190.495 351.633C190 351.14 189.663 350.51 189.526 349.825C189.389 349.139 189.458 348.428 189.725 347.782C189.992 347.136 190.445 346.584 191.026 346.196C191.607 345.807 192.29 345.6 192.989 345.6C193.924 345.6 194.821 345.97 195.483 346.631C196.146 347.291 196.519 348.187 196.522 349.122V349.122Z" fill="#263238"/>
<path d="M207.108 352.694C209.059 352.694 210.641 351.113 210.641 349.162C210.641 347.211 209.059 345.63 207.108 345.63C205.158 345.63 203.576 347.211 203.576 349.162C203.576 351.113 205.158 352.694 207.108 352.694Z" fill="#263238"/>
<path d="M276.659 496.042H215.065V542.153H276.659V496.042Z" fill="#EBEBEB"/>
<path d="M344.306 496.042H282.712V542.153H344.306V496.042Z" fill="#EBEBEB"/>
<path d="M423.138 496.042H361.544V542.153H423.138V496.042Z" fill="#EBEBEB"/>
<path d="M323.115 475.167C294.123 455.899 297.502 415.723 304.994 398.566L327.597 394.627C319.97 404.028 319.166 438.115 328.784 445.473C338.401 452.832 356.289 452.741 363.365 442.91C368.928 435.193 369.704 417.316 379.102 415.878C375.164 395.921 389.301 374.131 409.128 369.604C410.204 363.974 412.541 358.661 415.963 354.063C419.385 349.465 423.804 345.701 428.888 343.054C433.972 340.407 439.589 338.945 445.318 338.778C451.047 338.611 456.74 339.744 461.969 342.09L461.535 406.774C461.535 406.774 467.696 437.466 448.541 444.626C441.998 447.071 435.511 445.646 429.993 443.012C429.571 443.993 428.966 444.886 428.21 445.641C425.238 448.549 420.597 449.308 416.51 448.436C415.983 448.323 415.493 448.186 414.956 448.009C410.65 461.243 398.304 475.469 386.876 481.418C370.344 490.077 338.711 485.525 323.115 475.167Z" fill="#F5F5F5"/>
<path d="M382.92 422.719C382.92 422.719 382.892 422.609 382.794 422.4L382.365 421.507C382.168 421.111 381.931 420.622 381.698 420.03C381.464 419.438 381.151 418.764 380.904 417.978C379.338 413.552 378.652 408.862 378.885 404.172C379.029 400.957 379.621 397.778 380.644 394.726C381.801 391.201 383.55 387.899 385.817 384.962C391.044 378.183 398.527 373.503 406.909 371.768C408.11 371.509 409.329 371.377 410.459 371.239L410.68 371.219L410.691 371.004C411.076 366.071 412.496 361.274 414.858 356.927C417.22 352.579 420.471 348.778 424.4 345.77C425.769 344.768 427.195 343.847 428.671 343.011C431.311 341.487 434.13 340.297 437.063 339.466C441.295 338.232 445.749 337.96 450.1 338.671C450.875 338.778 451.539 338.936 452.124 339.071C452.617 339.175 453.105 339.303 453.586 339.456L454.486 339.707C454.586 339.745 454.69 339.768 454.797 339.773C454.797 339.773 454.702 339.717 454.503 339.659L453.62 339.359C453.143 339.185 452.656 339.041 452.16 338.93C451.578 338.773 450.91 338.601 450.11 338.455C445.723 337.664 441.213 337.882 436.922 339.091C433.952 339.905 431.097 341.091 428.424 342.62C426.923 343.453 425.476 344.378 424.089 345.389C422.628 346.487 421.255 347.7 419.984 349.014C414.242 354.946 410.747 362.692 410.098 370.922L410.335 370.678C405.436 371.162 400.69 372.651 396.392 375.052C392.095 377.453 388.339 380.715 385.358 384.633C383.069 387.613 381.307 390.964 380.149 394.539C379.126 397.644 378.546 400.878 378.423 404.145C378.216 408.874 378.962 413.596 380.617 418.03C380.862 418.727 381.144 419.41 381.461 420.077C381.669 420.579 381.905 421.068 382.169 421.543C382.373 421.908 382.529 422.197 382.644 422.417C382.727 422.525 382.82 422.626 382.92 422.719V422.719Z" fill="#263238"/>
<path d="M371.174 428.34C371.273 428.328 371.182 427.436 371.431 426.045C371.582 425.237 371.82 424.448 372.142 423.692C372.547 422.77 373.061 421.899 373.671 421.099C374.309 420.316 375.037 419.611 375.841 418.999C376.502 418.509 377.216 418.094 377.968 417.761C379.267 417.198 380.152 417.08 380.136 416.989C380.12 416.897 379.909 416.959 379.501 416.999C378.929 417.072 378.368 417.215 377.83 417.423C377.022 417.715 376.258 418.115 375.557 418.611C373.822 419.835 372.477 421.534 371.683 423.503C371.362 424.302 371.15 425.141 371.052 425.996C370.972 426.569 370.967 427.149 371.036 427.723C371.098 428.132 371.146 428.347 371.174 428.34Z" fill="#263238"/>
<path d="M381.383 452.657C381.383 452.657 381.431 452.022 381.648 450.903C381.957 449.312 382.58 447.798 383.48 446.451C384.82 444.416 386.779 442.867 389.067 442.032C391.919 440.999 395.059 441.095 397.843 442.301L398.231 442.472L398.206 442.061C398.156 440.69 398.261 439.318 398.52 437.971C399.186 434.503 400.815 431.294 403.222 428.71C405.22 426.628 407.675 425.041 410.393 424.073C412.227 423.419 414.149 423.044 416.093 422.96C417.473 422.911 418.242 422.991 418.236 422.941C418.057 422.886 417.872 422.855 417.685 422.849C417.154 422.784 416.62 422.753 416.085 422.757C413.621 422.769 411.184 423.273 408.916 424.239C406.649 425.204 404.597 426.612 402.88 428.38C401.143 430.201 399.788 432.352 398.897 434.706C398.006 437.06 397.596 439.569 397.691 442.084L398.059 441.835C395.149 440.567 391.861 440.479 388.886 441.588C386.522 442.479 384.514 444.117 383.166 446.253C382.271 447.649 381.68 449.218 381.431 450.857C381.365 451.297 381.332 451.741 381.334 452.186C381.328 452.345 381.344 452.503 381.383 452.657V452.657Z" fill="#263238"/>
<path d="M308.466 460.022C308.579 460.269 308.711 460.507 308.862 460.733C309.146 461.18 309.549 461.86 310.117 462.695C311.756 465.035 313.608 467.218 315.649 469.218C318.686 472.161 322.055 474.742 325.689 476.907C327.834 478.192 330.052 479.352 332.331 480.38C334.774 481.496 337.278 482.474 339.83 483.309C348.791 486.287 358.196 487.71 367.637 487.516C370.493 487.46 373.339 487.15 376.14 486.587C377.123 486.363 377.887 486.173 378.393 486.005C378.656 485.938 378.913 485.848 379.159 485.734C378.889 485.771 378.622 485.828 378.36 485.904C377.846 486.044 377.085 486.189 376.095 486.386C373.299 486.87 370.468 487.125 367.631 487.151C358.249 487.236 348.918 485.773 340.012 482.822C337.478 481.996 334.991 481.028 332.565 479.923C330.296 478.913 328.087 477.77 325.951 476.502C322.324 474.37 318.949 471.837 315.888 468.951C313.857 466.992 311.992 464.868 310.312 462.601C309.716 461.795 309.302 461.132 309.006 460.666C308.844 460.437 308.663 460.221 308.466 460.022V460.022Z" fill="#263238"/>
<path d="M323.711 436.787C323.781 437.241 323.912 437.683 324.102 438.101C324.511 439.252 325.026 440.363 325.64 441.419C327.655 444.952 330.611 447.856 334.179 449.807C337.747 451.758 341.787 452.68 345.849 452.469C347.065 452.416 348.273 452.251 349.459 451.976C349.903 451.894 350.335 451.758 350.747 451.571C349.122 451.836 347.483 452.01 345.839 452.091C341.861 452.198 337.926 451.249 334.435 449.34C330.944 447.432 328.021 444.632 325.964 441.226C325.119 439.796 324.366 438.314 323.711 436.787V436.787Z" fill="#263238"/>
<path d="M319.198 391.424C321.277 395.635 322.5 400.216 322.797 404.903C322.834 405.57 322.661 406.231 322.301 406.794C321.942 407.356 321.414 407.792 320.794 408.038C320.173 408.284 319.491 408.329 318.843 408.166C318.196 408.003 317.616 407.64 317.186 407.129L317.117 407.088C317.813 412.788 318.13 418.528 318.067 424.27C318.065 425.078 317.813 425.865 317.347 426.524C316.88 427.183 316.221 427.681 315.46 427.951C314.699 428.221 313.873 428.248 313.095 428.03C312.318 427.812 311.627 427.358 311.117 426.732C301.891 415.504 297.05 401.31 297.494 386.785L319.198 391.424Z" fill="#029491"/>
<g opacity="0.3">
<path d="M316.678 396.648C317.073 397.346 317.324 398.116 317.417 398.912C317.459 399.31 317.385 399.711 317.204 400.067C317.023 400.424 316.742 400.72 316.396 400.92C315.308 401.443 313.924 400.569 312.853 401.161C311.782 401.753 311.858 403.382 312.142 404.621L313.058 408.539C313.284 409.5 313.426 410.701 312.608 411.279C311.79 411.857 310.49 411.277 309.685 410.546C307.82 408.824 306.4 406.676 305.547 404.284C304.695 401.893 304.435 399.33 304.791 396.816L316.678 396.648Z" fill="black"/>
</g>
<path d="M317.651 442.068C318.425 442.563 318.974 443.341 319.179 444.235C319.385 445.13 319.231 446.07 318.751 446.852C318.271 447.634 317.502 448.197 316.611 448.418C315.721 448.64 314.778 448.503 313.988 448.037C313.197 447.571 312.621 446.813 312.383 445.926C312.146 445.039 312.266 444.095 312.718 443.296C313.17 442.497 313.917 441.907 314.8 441.654C315.682 441.4 316.628 441.504 317.435 441.941" fill="#029491"/>
<path d="M307.036 221.64C312.268 221.439 322.385 234.59 332.158 256.822C337.937 269.929 341.584 283.876 342.96 298.135L346.63 395.28L321.039 396.247L306.191 396.814L280.6 397.78L277.272 309.619C276.94 300.995 277.436 292.359 278.753 283.829C280.033 275.28 282 266.849 284.634 258.617C292.165 235.624 301.809 221.832 307.036 221.64Z" fill="#F5F5F5"/>
<path d="M278.321 336.868L278.082 337.076C271.153 343.084 265.662 350.573 262.016 358.989C258.369 367.405 256.661 376.532 257.016 385.697L257.458 397.338L279.965 380.4L278.321 336.868Z" fill="#029491"/>
<path d="M278.321 336.867L278.328 337.093L278.343 337.719L278.439 340.105L278.702 349.125L279.794 380.392L279.865 380.271L259.387 395.725L257.355 397.196L257.614 397.348L257.346 390.492C257.277 388.238 257.143 386.016 257.153 383.844C257.121 379.664 257.511 375.492 258.32 371.392C259.043 367.685 260.121 364.057 261.538 360.557C262.157 358.895 262.936 357.374 263.62 355.878C264.304 354.383 265.095 353.02 265.911 351.754C268.343 347.691 271.242 343.927 274.55 340.538C275.688 339.299 276.69 338.469 277.305 337.841L278.282 336.914L278.015 337.13L277.278 337.708C276.634 338.307 275.614 339.127 274.459 340.357C271.097 343.728 268.155 347.492 265.695 351.568C264.87 352.829 264.125 354.231 263.376 355.7C262.627 357.168 261.899 358.72 261.266 360.385C259.83 363.901 258.735 367.546 257.995 371.27C257.176 375.392 256.776 379.586 256.802 383.788C256.789 385.982 256.92 388.191 256.998 390.45L257.274 397.334L257.287 397.668L257.557 397.466L259.588 395.996L280.098 380.548L280.139 380.479L280.174 380.419L278.885 349.012L278.506 340.052L278.41 337.665C278.396 337.412 278.396 337.214 278.379 337.065L278.321 336.867Z" fill="#263238"/>
<path d="M344.355 334.381C344.355 334.381 344.485 334.458 344.623 334.539C351.883 339.934 357.838 346.891 362.049 354.895C366.26 362.9 368.62 371.748 368.954 380.787L369.392 392.274L345.982 377.31L344.355 334.381Z" fill="#029491"/>
<path d="M344.355 334.381L344.351 334.565L344.373 335.161L344.426 337.522L344.723 346.364L345.799 377.342L345.807 377.428L345.867 377.464C352.436 381.674 359.639 386.292 367.19 391.128C367.916 391.556 368.612 392.036 369.262 392.454L369.547 392.622L369.535 392.289L369.282 385.524C369.184 383.299 369.146 381.11 368.971 378.957C368.687 374.819 367.98 370.722 366.861 366.728C365.861 363.125 364.513 359.627 362.837 356.284C362.102 354.685 361.207 353.238 360.415 351.816C359.623 350.394 358.735 349.113 357.812 347.952C355.106 344.128 351.952 340.642 348.417 337.568C347.185 336.457 346.129 335.718 345.447 335.177C345.109 334.919 344.853 334.722 344.644 334.563C344.434 334.405 344.358 334.395 344.358 334.395C344.523 334.492 344.793 334.744 345.38 335.23C345.967 335.716 347.098 336.546 348.311 337.669C351.82 340.764 354.956 344.258 357.655 348.08C358.548 349.271 359.333 350.608 360.24 351.934C361.147 353.261 361.896 354.797 362.628 356.382C364.282 359.718 365.612 363.205 366.6 366.796C367.701 370.77 368.397 374.845 368.679 378.959C368.842 381.094 368.874 383.291 368.972 385.516L369.225 392.281L369.492 392.124C368.826 391.731 368.126 391.26 367.429 390.803C359.872 385.975 352.656 381.361 346.082 377.159L346.158 377.286L344.906 346.448L344.526 337.569L344.43 335.183L344.396 334.569L344.355 334.381Z" fill="#263238"/>
<path d="M307.035 221.641C311.074 221.331 318.058 229.304 325.521 243.162L288.784 247.051C295.151 232.435 301.858 222.026 307.035 221.641Z" fill="#029491"/>
<path d="M280.692 381.934C280.703 382.034 295.34 381.646 313.388 381.067C331.435 380.488 346.078 379.952 346.067 379.852C346.056 379.753 331.477 380.14 313.38 380.724C295.283 381.309 280.689 381.839 280.692 381.934Z" fill="#263238"/>
<path d="M281.105 384.869C281.064 384.938 295.745 384.576 313.792 383.997C331.839 383.418 346.483 382.882 346.472 382.782C346.461 382.683 331.84 383.08 313.784 383.655C295.729 384.229 281.094 384.769 281.105 384.869Z" fill="#263238"/>
<path d="M281.159 387.976C281.171 388.076 295.808 387.688 313.856 387.109C331.903 386.53 346.546 385.994 346.535 385.894C346.524 385.795 331.904 386.192 313.848 386.767C295.792 387.341 281.157 387.881 281.159 387.976Z" fill="#263238"/>
<path d="M281.224 391.09C281.235 391.189 295.878 390.793 313.92 390.223C331.962 389.652 346.623 389.068 346.579 389.043C346.536 389.017 331.948 389.341 313.892 389.915C295.836 390.489 281.227 390.986 281.224 391.09Z" fill="#263238"/>
<path d="M281.267 394.179C281.226 394.249 295.907 393.887 313.963 393.312C332.019 392.738 346.645 392.192 346.642 392.098C346.64 392.003 332.011 392.396 313.955 392.97C295.899 393.544 281.308 394.11 281.267 394.179Z" fill="#263238"/>
<path d="M311.219 335.7C311.219 335.7 311.142 335.83 311.16 336.155C311.178 336.48 311.14 336.9 311.128 337.475C311.119 338.635 311.163 340.28 311.229 342.322C311.347 346.411 311.582 352.059 311.88 358.292C312.178 364.525 312.476 370.164 312.711 374.251L313.016 379.09L313.119 380.397C313.116 380.551 313.136 380.703 313.177 380.851C313.191 380.697 313.193 380.542 313.182 380.388L313.152 379.077L312.956 374.232L312.203 358.296L311.453 342.338L311.226 337.545C311.211 336.977 311.175 336.525 311.187 336.229L311.219 335.7Z" fill="#263238"/>
<path d="M278.322 336.867C278.333 336.967 292.994 336.5 311.062 335.828C329.129 335.156 343.796 334.541 343.793 334.446C343.791 334.351 329.13 334.818 311.054 335.485C292.978 336.153 278.32 336.773 278.322 336.867Z" fill="#263238"/>
<path d="M307.129 367.931C307.016 367.808 306.868 367.721 306.705 367.681C306.274 367.507 305.795 367.488 305.351 367.628C305.011 367.721 304.701 367.902 304.453 368.153C304.205 368.403 304.028 368.715 303.938 369.056C303.807 369.481 303.813 369.937 303.954 370.359C304.096 370.781 304.366 371.148 304.727 371.408C305.088 371.668 305.521 371.809 305.966 371.81C306.411 371.811 306.846 371.673 307.208 371.414C307.504 371.222 307.745 370.956 307.906 370.642C308.066 370.327 308.141 369.976 308.123 369.624C308.121 369.171 307.971 368.731 307.697 368.371C307.489 368.131 307.314 368.052 307.304 368.069C307.294 368.087 307.425 368.199 307.587 368.458C307.817 368.811 307.935 369.225 307.924 369.646C307.92 369.951 307.837 370.249 307.682 370.511C307.527 370.773 307.307 370.991 307.042 371.142C306.732 371.346 306.368 371.451 305.997 371.443C305.626 371.434 305.266 371.314 304.966 371.096C304.665 370.878 304.438 370.574 304.315 370.225C304.191 369.875 304.177 369.495 304.275 369.137C304.343 368.843 304.486 368.571 304.691 368.349C304.895 368.126 305.154 367.961 305.442 367.869C305.829 367.723 306.25 367.696 306.653 367.79C306.967 367.87 307.114 367.957 307.129 367.931Z" fill="#263238"/>
<path d="M306.072 349.172C306.072 349.172 305.961 349.025 305.649 348.922C305.217 348.748 304.738 348.729 304.294 348.869C303.954 348.962 303.644 349.143 303.396 349.394C303.148 349.644 302.971 349.956 302.882 350.297C302.75 350.722 302.756 351.178 302.897 351.6C303.039 352.022 303.309 352.389 303.67 352.649C304.031 352.909 304.464 353.05 304.909 353.051C305.355 353.052 305.789 352.914 306.151 352.655C306.447 352.463 306.688 352.197 306.849 351.883C307.01 351.568 307.085 351.217 307.066 350.865C307.058 350.415 306.907 349.979 306.635 349.62C306.534 349.486 306.4 349.379 306.247 349.31C306.247 349.31 306.363 349.449 306.526 349.707C306.755 350.06 306.873 350.475 306.862 350.896C306.859 351.199 306.777 351.495 306.623 351.756C306.469 352.017 306.249 352.233 305.985 352.383C305.676 352.587 305.312 352.693 304.941 352.686C304.571 352.679 304.211 352.559 303.91 352.342C303.609 352.126 303.381 351.823 303.257 351.473C303.132 351.124 303.117 350.745 303.213 350.387C303.282 350.091 303.426 349.818 303.631 349.594C303.837 349.371 304.096 349.204 304.385 349.11C304.772 348.97 305.191 348.946 305.591 349.04C305.91 349.111 306.057 349.198 306.072 349.172Z" fill="#263238"/>
<path d="M315.096 319.557C314.978 319.44 314.832 319.354 314.672 319.308C314.239 319.141 313.763 319.122 313.318 319.254C312.966 319.347 312.645 319.533 312.391 319.794C312.137 320.055 311.959 320.379 311.875 320.734C311.745 321.159 311.752 321.615 311.894 322.036C312.037 322.457 312.308 322.823 312.669 323.083C313.031 323.342 313.464 323.482 313.909 323.482C314.354 323.482 314.788 323.342 315.149 323.083C315.446 322.892 315.687 322.625 315.847 322.311C316.008 321.997 316.083 321.646 316.065 321.293C316.061 320.842 315.91 320.405 315.633 320.049C315.421 319.796 315.256 319.721 315.245 319.738C315.332 319.873 315.427 320.003 315.529 320.127C315.752 320.483 315.869 320.895 315.865 321.315C315.86 321.619 315.775 321.917 315.621 322.179C315.466 322.441 315.247 322.659 314.984 322.811C314.665 322.991 314.304 323.081 313.938 323.071C313.573 323.061 313.217 322.951 312.909 322.753C312.621 322.524 312.403 322.218 312.282 321.871C312.161 321.523 312.142 321.148 312.226 320.789C312.294 320.495 312.438 320.223 312.642 320.001C312.847 319.778 313.106 319.613 313.394 319.521C313.781 319.375 314.202 319.348 314.605 319.442C314.934 319.496 315.081 319.583 315.096 319.557Z" fill="#263238"/>
<path d="M319.063 306.345C318.972 306.361 318.781 312.911 318.602 320.96C318.424 329.009 318.439 335.564 318.538 335.553C318.638 335.542 318.821 328.987 319 320.938C319.178 312.889 319.184 306.358 319.063 306.345Z" fill="#263238"/>
<g opacity="0.3">
<path d="M345.929 376.195C345.929 376.195 344.212 348.042 344.355 334.381C347.321 340.87 350.654 348.298 351.51 355.384C352.311 362.774 350.32 370.197 345.929 376.195V376.195Z" fill="black"/>
</g>
<path d="M305.224 308.067C294.626 305.396 288.201 294.639 290.872 284.042C293.543 273.444 304.3 267.019 314.897 269.69C325.495 272.362 331.92 283.118 329.249 293.716C326.578 304.313 315.821 310.739 305.224 308.067Z" fill="white"/>
<path d="M301.001 306.496C300.915 306.431 300.822 306.376 300.724 306.333C300.516 306.211 300.248 306.053 299.911 305.854C299.467 305.603 299.043 305.318 298.643 305.001C298.074 304.605 297.533 304.169 297.024 303.698C295.606 302.433 294.382 300.966 293.393 299.344C292.076 297.2 291.179 294.826 290.75 292.346C290.188 289.123 290.444 285.81 291.495 282.711C292.546 279.612 294.359 276.827 296.767 274.611C298.138 273.321 299.701 272.25 301.399 271.436C302.271 271.01 303.17 270.641 304.089 270.331C305.032 270.06 305.99 269.847 306.958 269.692C311.065 269.029 315.277 269.7 318.975 271.605C322.673 273.511 325.664 276.551 327.508 280.28C327.947 281.148 328.33 282.043 328.655 282.959C328.94 283.888 329.16 284.835 329.314 285.794C329.639 287.651 329.676 289.547 329.425 291.416C328.982 294.87 327.63 298.145 325.507 300.906C323.801 303.102 321.649 304.912 319.194 306.217C316.738 307.522 314.034 308.292 311.259 308.478C309.365 308.617 307.46 308.471 305.608 308.047C304.929 307.905 304.259 307.72 303.604 307.495C303.114 307.352 302.636 307.172 302.174 306.955C301.82 306.804 301.532 306.681 301.304 306.593C301.21 306.545 301.109 306.51 301.006 306.487C301.093 306.549 301.186 306.604 301.282 306.65C301.49 306.773 301.783 306.887 302.127 307.055C302.583 307.292 303.058 307.491 303.548 307.648C304.195 307.889 304.858 308.086 305.532 308.235C307.396 308.725 309.326 308.919 311.25 308.81C314.079 308.654 316.842 307.897 319.356 306.588C321.869 305.279 324.073 303.449 325.823 301.221C328.025 298.397 329.432 295.035 329.897 291.484C330.161 289.569 330.128 287.625 329.8 285.719C329.506 283.721 328.89 281.784 327.974 279.984C327.054 278.109 325.839 276.394 324.376 274.904C322.861 273.376 321.122 272.087 319.219 271.084C315.425 269.143 311.111 268.46 306.902 269.135C305.898 269.291 304.906 269.52 303.935 269.821C302.994 270.142 302.074 270.521 301.18 270.957C299.445 271.799 297.849 272.9 296.447 274.224C293.826 276.663 291.906 279.757 290.884 283.188C290.084 285.907 289.872 288.767 290.264 291.574C290.655 294.382 291.641 297.075 293.155 299.472C294.171 301.11 295.431 302.584 296.892 303.841C297.411 304.315 297.968 304.745 298.558 305.126C298.967 305.436 299.401 305.711 299.855 305.949C300.192 306.148 300.46 306.306 300.668 306.428C300.775 306.465 300.887 306.487 301.001 306.496V306.496Z" fill="#263238"/>
<path d="M307.036 221.64C306.959 221.641 306.882 221.646 306.805 221.656C306.574 221.667 306.346 221.708 306.126 221.78C305.259 222.054 304.449 222.485 303.735 223.05C301.05 225.307 298.761 227.997 296.96 231.007C293.987 235.714 291.416 240.663 289.275 245.802C286.372 252.625 283.961 259.648 282.061 266.815C281.022 270.816 280.084 275.043 279.246 279.495C278.382 284.139 277.755 288.823 277.367 293.531C276.965 298.589 276.842 303.665 277 308.737L277.592 324.905L280.327 397.748L280.336 398.01L280.598 398.001C291.193 397.595 302.297 397.174 313.608 396.759C324.918 396.345 336.024 395.902 346.628 395.501L346.884 395.501L346.875 395.239L344.133 322.369L343.505 306.203L343.19 298.516C343.038 295.968 342.665 293.477 342.349 291.031C340.916 282.089 338.642 273.303 335.556 264.79C332.935 257.847 329.87 251.079 326.381 244.529C323.825 239.587 320.9 234.845 317.631 230.344C315.65 227.461 313.214 224.92 310.418 222.819C309.673 222.297 308.837 221.919 307.953 221.704C307.727 221.651 307.494 221.627 307.261 221.633C307.183 221.626 307.105 221.627 307.027 221.635C307.334 221.641 307.639 221.681 307.937 221.752C308.806 221.986 309.627 222.375 310.358 222.9C313.141 225.029 315.564 227.59 317.536 230.486C320.77 234.998 323.664 239.745 326.194 244.687C329.631 251.235 332.65 257.995 335.232 264.925C338.284 273.423 340.526 282.19 341.929 291.11C342.294 293.514 342.635 295.999 342.777 298.505L343.062 306.222L343.668 322.386L346.38 395.25L346.632 394.979L313.617 396.229L280.607 397.471L280.878 397.723L278.098 324.877L277.492 308.713C277.324 303.657 277.434 298.597 277.82 293.553C278.197 288.685 278.861 284.021 279.654 279.573C280.447 275.125 281.361 270.887 282.397 266.897C284.27 259.742 286.652 252.73 289.524 245.914C291.628 240.776 294.158 235.822 297.088 231.106C298.866 228.1 301.123 225.406 303.77 223.129C304.47 222.56 305.263 222.117 306.115 221.82C306.417 221.737 306.725 221.677 307.036 221.64V221.64Z" fill="#263238"/>
<path d="M399.829 480.981H225.554C220.09 480.981 214.85 478.81 210.986 474.946C207.123 471.083 204.952 465.843 204.952 460.379C204.952 454.915 207.123 449.675 210.986 445.811C214.85 441.948 220.09 439.777 225.554 439.777H399.829C405.293 439.777 410.533 441.948 414.397 445.811C418.26 449.675 420.431 454.915 420.431 460.379V460.379C420.431 465.843 418.26 471.083 414.397 474.946C410.533 478.81 405.293 480.981 399.829 480.981Z" fill="white"/>
<path d="M399.828 480.98L401.052 480.89C401.557 480.881 402.061 480.831 402.558 480.739C403.251 480.653 403.938 480.522 404.615 480.348L405.839 480.027C406.261 479.886 406.692 479.716 407.154 479.545L407.856 479.284L408.569 478.933C409.077 478.709 409.57 478.451 410.044 478.16C412.361 476.827 414.39 475.046 416.014 472.922C416.499 472.317 416.939 471.676 417.329 471.006C417.759 470.315 418.138 469.594 418.463 468.848C418.815 468.07 419.123 467.272 419.386 466.46C419.497 466.038 419.607 465.617 419.717 465.175L419.888 464.523L419.988 463.851L420.199 462.476L420.259 461.071V460.349V459.626C420.259 459.134 420.259 458.623 420.169 458.151C419.921 456.105 419.383 454.105 418.573 452.21C416.713 448.015 413.516 444.554 409.482 442.366C407.296 441.198 404.916 440.44 402.457 440.128C399.929 439.847 397.269 439.988 394.57 439.958L225.593 440.038C223.555 440.066 221.53 440.366 219.572 440.931C217.649 441.553 215.819 442.435 214.133 443.55C212.493 444.683 211.014 446.033 209.738 447.564C208.498 449.123 207.484 450.849 206.727 452.692C205.996 454.531 205.524 456.463 205.322 458.432C205.161 460.387 205.262 462.354 205.623 464.282C206.379 468.107 208.222 471.633 210.932 474.438C213.588 477.201 216.974 479.153 220.696 480.067C221.607 480.294 222.532 480.462 223.465 480.569C224.409 480.569 225.332 480.699 226.285 480.679H253.881L329.855 480.739L381.033 480.82L394.961 480.87H398.584H399.818H398.584H394.961H381.033L329.855 480.96L253.881 481.01H226.285C225.342 481.01 224.369 480.94 223.415 480.9C222.459 480.79 221.51 480.619 220.575 480.388C216.752 479.459 213.271 477.462 210.541 474.628C209.168 473.196 208 471.582 207.068 469.832C206.148 468.058 205.473 466.167 205.061 464.212C204.694 462.227 204.592 460.203 204.76 458.191C205.142 454.111 206.716 450.234 209.286 447.042C211.893 443.805 215.409 441.421 219.381 440.199C221.381 439.615 223.45 439.304 225.533 439.275L394.51 439.346C397.209 439.346 399.848 439.245 402.437 439.546C404.951 439.856 407.384 440.631 409.612 441.834C413.705 444.069 416.942 447.598 418.814 451.869C419.631 453.79 420.168 455.817 420.41 457.89C420.46 458.392 420.46 458.894 420.49 459.385V460.118V460.84C420.49 461.322 420.44 461.844 420.42 462.275C420.4 462.707 420.269 463.209 420.199 463.66L420.099 464.342L419.928 465.005C419.808 465.446 419.697 465.878 419.587 466.299C419.256 467.122 419.035 467.965 418.644 468.718C418.306 469.469 417.917 470.197 417.48 470.895C417.08 471.565 416.634 472.205 416.145 472.812C414.505 474.945 412.459 476.733 410.124 478.07C409.64 478.352 409.141 478.607 408.629 478.833L407.906 479.174L407.204 479.435C406.732 479.606 406.301 479.776 405.869 479.907L404.645 480.218C403.962 480.39 403.268 480.514 402.568 480.589C402.07 480.669 401.567 480.713 401.062 480.719L399.828 480.98Z" fill="#263238"/>
<path d="M398.414 464.562C401.995 460.98 401.995 455.173 398.413 451.591C394.832 448.009 389.024 448.009 385.443 451.591C381.861 455.173 381.861 460.98 385.443 464.562C389.024 468.143 394.832 468.143 398.414 464.562Z" fill="white"/>
<path d="M391.921 468.918C390.007 468.92 388.135 468.354 386.543 467.292C384.95 466.23 383.709 464.719 382.976 462.951C382.242 461.183 382.05 459.237 382.423 457.36C382.796 455.482 383.717 453.758 385.071 452.404C386.424 451.051 388.149 450.129 390.026 449.756C391.904 449.383 393.849 449.576 395.618 450.309C397.386 451.043 398.896 452.284 399.958 453.877C401.021 455.469 401.587 457.341 401.585 459.255C401.582 461.817 400.563 464.273 398.751 466.085C396.939 467.897 394.483 468.916 391.921 468.918V468.918ZM391.921 450.585C390.206 450.583 388.528 451.089 387.101 452.041C385.674 452.992 384.561 454.346 383.904 455.93C383.246 457.514 383.073 459.257 383.406 460.94C383.74 462.622 384.565 464.168 385.777 465.382C386.989 466.595 388.534 467.422 390.216 467.757C391.898 468.093 393.642 467.922 395.227 467.266C396.811 466.61 398.166 465.499 399.119 464.073C400.072 462.647 400.581 460.97 400.581 459.255C400.581 456.957 399.669 454.753 398.045 453.128C396.421 451.502 394.219 450.587 391.921 450.585Z" fill="#263238"/>
<path d="M399.585 464.251L399.049 465.1L406.813 470.002L407.348 469.153L399.585 464.251Z" fill="#263238"/>
<path d="M136.706 657.834L137.318 687.016L98.9049 687.919C99.0353 684.447 118.724 677.011 118.724 677.011L117.52 658.336L136.706 657.834Z" fill="#455A64"/>
<g opacity="0.6">
<path d="M130.564 675.165C130.926 675.251 131.242 675.47 131.45 675.779C131.658 676.087 131.743 676.462 131.688 676.83C131.586 677.195 131.351 677.508 131.029 677.706C130.708 677.905 130.323 677.976 129.952 677.904C129.751 677.877 129.558 677.808 129.387 677.7C129.215 677.593 129.069 677.45 128.957 677.281C128.846 677.112 128.772 676.921 128.74 676.721C128.709 676.521 128.721 676.317 128.775 676.122C128.83 675.927 128.925 675.746 129.056 675.591C129.186 675.436 129.348 675.311 129.531 675.224C129.714 675.137 129.913 675.09 130.115 675.087C130.318 675.084 130.519 675.124 130.704 675.205" fill="white"/>
</g>
<g opacity="0.6">
<path d="M137.318 687.016L137.128 684.075L100.37 686.082C100.37 686.082 98.6841 686.825 98.9049 687.959L137.318 687.016Z" fill="white"/>
</g>
<path d="M118.101 676.84C118.101 677.021 119.044 677.081 119.988 677.633C120.931 678.185 121.433 678.908 121.603 678.837C121.774 678.767 121.473 677.744 120.319 677.101C119.165 676.459 118.051 676.68 118.101 676.84Z" fill="#263238"/>
<path d="M114.107 678.516C114.107 678.687 114.89 678.968 115.552 679.701C116.214 680.433 116.415 681.226 116.555 681.216C116.696 681.206 116.836 680.212 116.003 679.299C115.171 678.386 114.107 678.346 114.107 678.516Z" fill="#263238"/>
<path d="M111.939 683.122C112.11 683.122 112.351 682.269 111.849 681.306C111.347 680.343 110.454 679.982 110.374 680.132C110.294 680.283 110.856 680.784 111.257 681.577C111.658 682.37 111.759 683.112 111.939 683.122Z" fill="#263238"/>
<path d="M118.341 672.556C118.422 672.716 119.285 672.455 120.348 672.496C121.412 672.536 122.245 672.837 122.355 672.686C122.466 672.536 121.633 671.914 120.348 671.883C119.064 671.853 118.231 672.425 118.341 672.556Z" fill="#263238"/>
<path d="M119.124 668.23C119.76 668.379 120.424 668.362 121.051 668.18C121.742 668.047 122.415 667.835 123.058 667.548C123.432 667.378 123.794 667.183 124.142 666.966C124.354 666.849 124.547 666.7 124.714 666.525C124.834 666.4 124.905 666.237 124.916 666.064C124.928 665.891 124.877 665.72 124.774 665.581C124.677 665.454 124.55 665.353 124.405 665.284C124.26 665.216 124.101 665.184 123.941 665.19C123.7 665.196 123.46 665.233 123.229 665.3C122.819 665.405 122.419 665.546 122.035 665.722C121.399 666.009 120.813 666.395 120.299 666.866C119.426 667.658 119.135 668.331 119.205 668.361C119.275 668.391 119.706 667.859 120.6 667.187C121.121 666.801 121.687 666.481 122.285 666.234C122.645 666.095 123.014 665.981 123.389 665.892C123.791 665.782 124.132 665.772 124.242 665.892C124.353 666.013 124.242 665.983 124.242 666.103C124.121 666.229 123.982 666.337 123.831 666.424C123.506 666.632 123.171 666.822 122.827 666.996C122.237 667.293 121.618 667.532 120.981 667.709C120.35 667.837 119.73 668.011 119.124 668.23V668.23Z" fill="#263238"/>
<path d="M119.347 668.481C119.693 667.961 119.856 667.339 119.808 666.715C119.829 666.033 119.724 665.352 119.497 664.708C119.36 664.327 119.186 663.961 118.975 663.615C118.857 663.373 118.68 663.165 118.461 663.009C118.242 662.853 117.988 662.754 117.721 662.721C117.553 662.729 117.39 662.783 117.251 662.877C117.111 662.971 116.999 663.101 116.928 663.253C116.834 663.466 116.776 663.693 116.758 663.926C116.692 664.331 116.692 664.744 116.758 665.15C116.886 665.831 117.183 666.469 117.621 667.006C118.403 667.93 119.186 668.12 119.206 668.06C119.226 668 118.604 667.649 118.002 666.755C117.661 666.246 117.438 665.666 117.35 665.06C117.295 664.71 117.295 664.355 117.35 664.006C117.35 663.625 117.54 663.303 117.691 663.344C117.841 663.384 118.223 663.615 118.383 663.926C118.581 664.244 118.749 664.58 118.885 664.929C119.116 665.506 119.259 666.115 119.306 666.735C119.457 667.789 119.276 668.451 119.347 668.481Z" fill="#263238"/>
<path d="M165.817 660.263L169.52 689.213L207.652 684.477C207.01 681.065 186.449 676.6 186.449 676.6L184.903 657.945L165.817 660.263Z" fill="#455A64"/>
<g opacity="0.6">
<path d="M174.427 676.499C174.08 676.637 173.797 676.9 173.635 677.237C173.473 677.573 173.444 677.959 173.554 678.316C173.71 678.659 173.99 678.932 174.337 679.08C174.684 679.229 175.074 679.243 175.43 679.119C175.799 678.974 176.099 678.694 176.269 678.336C176.439 677.978 176.465 677.569 176.344 677.192C176.143 676.861 175.828 676.614 175.459 676.498C175.09 676.382 174.691 676.404 174.337 676.56" fill="white"/>
</g>
<g opacity="0.6">
<path d="M169.519 689.214L169.268 686.273L205.915 682.842C205.915 682.842 207.651 683.283 207.651 684.477L169.519 689.214Z" fill="white"/>
</g>
<path d="M187.001 676.339C187.001 676.519 186.098 676.71 185.245 677.393C184.392 678.075 184 678.868 183.82 678.817C183.639 678.767 183.82 677.724 184.823 676.921C185.827 676.118 187.021 676.168 187.001 676.339Z" fill="#263238"/>
<path d="M191.186 677.402C191.256 677.573 190.484 677.974 189.942 678.797C189.4 679.62 189.309 680.423 189.129 680.443C188.948 680.463 188.697 679.44 189.39 678.436C190.082 677.433 191.166 677.262 191.186 677.402Z" fill="#263238"/>
<path d="M194.006 681.647C193.845 681.708 193.484 680.865 193.845 679.841C194.206 678.818 195.029 678.326 195.12 678.456C195.21 678.587 194.738 679.179 194.457 680.022C194.176 680.865 194.196 681.607 194.006 681.647Z" fill="#263238"/>
<path d="M186.149 672.134C186.088 672.304 185.205 672.134 184.142 672.365C183.078 672.595 182.315 672.977 182.205 672.836C182.095 672.696 182.797 671.973 184.031 671.753C185.266 671.532 186.229 671.983 186.149 672.134Z" fill="#263238"/>
<path d="M184.724 667.97C184.117 668.205 183.461 668.281 182.817 668.191C182.117 668.167 181.422 668.056 180.75 667.859C180.352 667.752 179.963 667.615 179.586 667.448C179.358 667.364 179.145 667.245 178.954 667.097C178.818 666.99 178.724 666.84 178.687 666.671C178.651 666.503 178.674 666.327 178.753 666.174C178.835 666.035 178.947 665.918 179.081 665.829C179.214 665.74 179.367 665.683 179.526 665.662C179.765 665.631 180.008 665.631 180.248 665.662C180.666 665.702 181.08 665.783 181.482 665.903C182.156 666.092 182.796 666.387 183.379 666.776C184.382 667.438 184.734 668.06 184.673 668.1C184.613 668.14 184.101 667.669 183.128 667.147C182.218 666.647 181.213 666.346 180.178 666.264C179.756 666.214 179.415 666.264 179.335 666.434C179.255 666.605 179.335 666.535 179.405 666.635C179.546 666.741 179.701 666.826 179.867 666.886C180.215 667.051 180.573 667.192 180.94 667.307C181.569 667.511 182.213 667.659 182.867 667.749C183.491 667.775 184.111 667.849 184.724 667.97V667.97Z" fill="#263238"/>
<path d="M184.512 668.231C184.093 667.764 183.843 667.171 183.8 666.545C183.68 665.881 183.68 665.202 183.8 664.538C183.873 664.141 183.991 663.754 184.151 663.384C184.23 663.128 184.373 662.896 184.566 662.71C184.759 662.524 184.996 662.39 185.255 662.32C185.422 662.301 185.591 662.329 185.743 662.4C185.895 662.47 186.025 662.582 186.118 662.722C186.237 662.923 186.328 663.139 186.389 663.364C186.507 663.757 186.558 664.168 186.539 664.578C186.526 665.287 186.325 665.979 185.957 666.585C185.325 667.589 184.573 667.92 184.542 667.86C184.512 667.799 185.084 667.358 185.546 666.394C185.806 665.839 185.94 665.232 185.937 664.618C185.935 664.278 185.881 663.939 185.777 663.615C185.676 663.233 185.486 662.942 185.335 663.003C185.185 663.063 184.864 663.354 184.743 663.675C184.595 663.999 184.474 664.335 184.382 664.678C184.248 665.284 184.197 665.905 184.231 666.525C184.332 667.579 184.573 668.231 184.512 668.231Z" fill="#263238"/>
<path d="M106.914 502.967L166.712 504.883C166.712 504.883 180.811 598.99 180.419 605.543L189.109 673.78L163.822 674.673C163.822 674.673 159.808 652.526 157.068 637.374C155.222 627.339 151.85 612.507 150.937 604.088C150.024 595.669 135.232 536.854 135.232 536.854C135.232 536.854 136.326 605.091 136.296 607.901C136.266 610.711 139.226 674.593 139.226 674.593H114.139C112.844 663.063 109.764 616.922 109.121 607.6C107.917 590.762 104.104 543.196 103.592 531.044C103.08 518.892 106.914 502.967 106.914 502.967Z" fill="#263238"/>
<path d="M110.856 503.428C111.136 502.013 111.136 500.558 110.856 499.143C110.562 500.556 110.562 502.015 110.856 503.428V503.428Z" fill="#455A64"/>
<path d="M108.368 504.562C108.844 502.757 108.684 500.844 107.916 499.143C107.943 500.051 108.031 500.956 108.177 501.852C108.18 502.759 108.244 503.664 108.368 504.562V504.562Z" fill="#455A64"/>
<path d="M130.704 500.077C131.189 500.176 131.631 500.426 131.968 500.789C132.137 500.98 132.261 501.206 132.332 501.451C132.403 501.695 132.419 501.952 132.38 502.204C132.295 502.493 132.132 502.752 131.909 502.954C131.686 503.156 131.411 503.292 131.115 503.348C130.82 503.405 130.514 503.378 130.233 503.272C129.951 503.165 129.705 502.983 129.52 502.746C129.393 502.526 129.315 502.281 129.291 502.028C129.267 501.776 129.297 501.521 129.379 501.281C129.555 500.815 129.88 500.42 130.303 500.157C130.303 500.157 130.132 500.157 129.881 500.267C129.525 500.47 129.249 500.789 129.098 501.17C128.973 501.454 128.915 501.763 128.929 502.073C128.943 502.383 129.028 502.685 129.179 502.957C129.4 503.275 129.708 503.523 130.067 503.67C130.426 503.817 130.82 503.857 131.202 503.785C131.583 503.713 131.935 503.531 132.215 503.263C132.495 502.995 132.692 502.652 132.781 502.274C132.822 501.966 132.791 501.652 132.69 501.358C132.589 501.063 132.421 500.796 132.199 500.578C131.916 500.281 131.542 500.087 131.136 500.026C130.855 499.996 130.704 500.056 130.704 500.077Z" fill="#455A64"/>
<path d="M158.271 603.927C160.454 603.266 162.593 602.465 164.673 601.529C166.811 600.729 168.896 599.794 170.915 598.729C168.73 599.394 166.588 600.195 164.503 601.128C162.369 601.93 160.288 602.865 158.271 603.927V603.927Z" fill="#455A64"/>
<path d="M161.492 361.525C161.301 358.043 159.153 355.895 156.153 354.119C154.64 353.241 152.938 352.742 151.191 352.663C149.444 352.584 147.704 352.929 146.118 353.668C144.011 354.671 142.164 356.377 139.856 356.678C136.043 357.17 132.441 353.668 128.708 354.52C127.594 354.788 126.607 355.432 125.915 356.344C125.222 357.257 124.867 358.381 124.91 359.525C124.952 360.67 125.39 361.764 126.148 362.623C126.906 363.481 127.938 364.051 129.069 364.234C126.57 364.595 125.165 367.756 126.058 370.095C126.952 372.433 129.591 373.807 132.079 373.858C134.614 373.777 137.079 373.003 139.204 371.62C141.382 370.356 143.419 368.83 145.697 367.746C147.933 366.539 150.523 366.159 153.012 366.673C156.314 367.546 158.652 370.687 159.505 373.958C160.358 377.229 159.996 380.752 159.505 384.123C159.013 387.495 158.341 390.897 158.662 394.299C158.659 394.492 158.702 394.683 158.785 394.857C158.869 395.031 158.991 395.183 159.143 395.302C159.645 395.583 160.227 395.112 160.599 394.67C164.825 389.656 168.023 383.859 170.011 377.611C171.165 373.998 171.797 370.476 170.423 366.944C169.048 363.411 164.402 360.05 161.451 361.485" fill="#263238"/>
<path d="M164.732 378.343L159.163 412.733C158.16 419.155 153.945 425.367 143.87 423.259C135.26 420.771 135.902 414.579 137.026 406.943C137.026 406.943 127.553 404.484 128.406 394.851C128.808 390.194 130.413 380.681 132.009 372.092C132.823 367.644 135.283 363.665 138.897 360.949C142.512 358.232 147.018 356.976 151.517 357.431L152.45 357.521C162.394 359.157 166.599 368.449 164.732 378.343Z" fill="#FFBE9D"/>
<path d="M137.027 406.943C141.467 407.377 145.938 406.531 149.912 404.504C149.912 404.504 146.139 411.649 136.636 409.823L137.027 406.943Z" fill="#EB996E"/>
<path d="M133.896 380.511C133.856 380.868 133.958 381.227 134.179 381.51C134.4 381.793 134.724 381.979 135.08 382.026C135.253 382.059 135.431 382.057 135.603 382.019C135.775 381.982 135.938 381.909 136.081 381.807C136.225 381.705 136.346 381.575 136.438 381.424C136.53 381.274 136.59 381.107 136.616 380.932C136.655 380.575 136.554 380.216 136.332 379.933C136.111 379.65 135.788 379.465 135.431 379.417C135.259 379.386 135.081 379.389 134.909 379.427C134.738 379.465 134.576 379.538 134.433 379.64C134.29 379.742 134.168 379.871 134.076 380.021C133.984 380.171 133.923 380.337 133.896 380.511Z" fill="#263238"/>
<path d="M133.595 377.019C133.745 377.22 134.869 376.547 136.344 376.708C137.82 376.868 138.833 377.711 139.014 377.541C139.194 377.37 138.953 377.129 138.522 376.738C137.925 376.229 137.186 375.917 136.405 375.845C135.636 375.76 134.861 375.929 134.197 376.326C133.705 376.628 133.525 376.929 133.595 377.019Z" fill="#263238"/>
<path d="M147.353 382.638C147.313 382.996 147.415 383.354 147.636 383.637C147.857 383.921 148.181 384.106 148.537 384.154C148.71 384.187 148.888 384.184 149.06 384.147C149.232 384.109 149.395 384.037 149.539 383.935C149.682 383.832 149.803 383.702 149.895 383.552C149.987 383.402 150.047 383.234 150.073 383.06C150.112 382.703 150.011 382.344 149.79 382.061C149.568 381.777 149.245 381.592 148.888 381.545C148.716 381.513 148.538 381.516 148.367 381.555C148.195 381.593 148.033 381.665 147.89 381.767C147.747 381.869 147.625 381.999 147.533 382.148C147.441 382.298 147.38 382.465 147.353 382.638V382.638Z" fill="#263238"/>
<path d="M147.816 378.755C147.976 378.945 149.09 378.283 150.565 378.434C152.04 378.584 153.054 379.437 153.234 379.277C153.415 379.116 153.174 378.865 152.743 378.474C152.146 377.965 151.406 377.653 150.625 377.581C149.858 377.5 149.085 377.665 148.418 378.052C147.926 378.353 147.745 378.665 147.816 378.755Z" fill="#263238"/>
<path d="M141.634 389.181C140.881 388.852 140.088 388.623 139.276 388.499C138.904 388.428 138.553 388.318 138.513 388.047C138.524 387.655 138.649 387.275 138.874 386.953C139.326 386.08 139.797 385.157 140.279 384.194C142.286 380.26 143.701 377.009 143.54 376.928C142.082 379.167 140.8 381.515 139.707 383.953L138.342 386.743C138.065 387.174 137.945 387.688 138.001 388.198C138.04 388.338 138.112 388.467 138.209 388.575C138.307 388.682 138.428 388.766 138.563 388.82C138.768 388.892 138.98 388.942 139.195 388.97C139.996 389.14 140.815 389.211 141.634 389.181V389.181Z" fill="#263238"/>
<path d="M148.296 372.925C148.396 373.346 149.891 373.306 151.607 373.687C153.323 374.069 154.678 374.691 154.939 374.35C155.059 374.179 154.859 373.778 154.327 373.346C153.625 372.801 152.81 372.42 151.942 372.232C151.073 372.045 150.173 372.055 149.309 372.262C148.607 372.443 148.256 372.734 148.296 372.925Z" fill="#263238"/>
<path d="M134.568 372.794C134.799 373.165 135.853 372.914 137.077 373.025C138.301 373.135 139.315 373.476 139.586 373.145C139.706 372.985 139.586 372.633 139.154 372.272C138.587 371.836 137.903 371.577 137.19 371.527C136.476 371.477 135.763 371.639 135.14 371.991C134.649 372.292 134.468 372.623 134.568 372.794Z" fill="#263238"/>
<path d="M163.237 385.388C163.408 385.328 170.041 384.094 169.168 390.646C168.295 397.199 161.893 394.982 161.913 394.791C161.933 394.6 163.237 385.388 163.237 385.388Z" fill="#FFBE9D"/>
<path d="M164.241 392.573C164.241 392.573 164.341 392.663 164.522 392.784C164.78 392.933 165.084 392.979 165.375 392.914C165.835 392.7 166.229 392.369 166.518 391.952C166.807 391.536 166.981 391.051 167.021 390.546C167.116 389.987 167.081 389.414 166.92 388.87C166.89 388.654 166.805 388.45 166.676 388.274C166.546 388.099 166.375 387.959 166.178 387.866C166.052 387.812 165.911 387.804 165.781 387.845C165.65 387.885 165.538 387.971 165.465 388.087C165.345 388.258 165.375 388.398 165.335 388.398C165.295 388.398 165.214 388.268 165.335 388.007C165.391 387.85 165.502 387.719 165.646 387.636C165.844 387.523 166.077 387.49 166.298 387.545C166.55 387.642 166.773 387.801 166.948 388.006C167.124 388.211 167.245 388.456 167.302 388.719C167.505 389.327 167.557 389.974 167.452 390.606C167.407 391.189 167.193 391.746 166.837 392.209C166.481 392.672 165.997 393.022 165.445 393.215C165.265 393.239 165.081 393.222 164.908 393.167C164.734 393.111 164.575 393.018 164.442 392.894C164.231 392.733 164.221 392.583 164.241 392.573Z" fill="#EB996E"/>
<path d="M132.793 363.171C133.916 361.401 135.465 359.942 137.299 358.926C141.144 356.535 145.645 355.415 150.163 355.725C154.698 356.078 158.919 358.179 161.934 361.585C164.24 364.378 165.674 367.788 166.059 371.389C166.433 374.976 166.092 378.602 165.055 382.056C164.734 383.612 163.963 385.039 162.837 386.16C162.085 386.803 160.83 387.164 160.158 386.482C159.783 386.032 159.567 385.471 159.546 384.886C158.793 379.688 158.091 374.099 160.439 369.402C159.401 367.599 158.004 366.028 156.335 364.786C155.496 364.171 154.543 363.729 153.532 363.486C152.521 363.243 151.471 363.204 150.444 363.371C147.434 363.973 145.326 366.643 142.788 368.389C140.957 369.626 138.859 370.41 136.666 370.677C134.473 370.944 132.248 370.686 130.174 369.924L132.793 363.171Z" fill="#263238"/>
<path d="M140.328 393.165C140.404 393.788 140.57 394.396 140.82 394.971C140.948 395.259 141.134 395.516 141.368 395.727C141.601 395.937 141.876 396.097 142.174 396.196C142.502 396.264 142.842 396.25 143.163 396.153C143.484 396.057 143.775 395.882 144.011 395.644C144.471 395.155 144.766 394.533 144.854 393.868C144.954 393.265 144.854 392.513 144.262 392.312C144.017 392.257 143.764 392.257 143.519 392.312L140.167 392.924" fill="#EB996E"/>
<path d="M141.032 395.965C141.581 396.112 142.152 396.16 142.718 396.105C143.301 396.009 143.827 395.697 144.193 395.232C144.407 394.949 144.559 394.624 144.639 394.278C144.719 393.932 144.724 393.573 144.654 393.225C144.621 393.048 144.563 392.876 144.484 392.714C144.393 392.553 144.414 392.563 144.273 392.563C144.094 392.583 143.917 392.613 143.741 392.653L143.189 392.754L141.283 393.075C140.701 393.213 140.103 393.264 139.507 393.225C140.037 392.951 140.611 392.768 141.202 392.683C141.744 392.543 142.376 392.402 143.089 392.242L143.631 392.121C143.832 392.121 143.982 392.031 144.243 392.011C144.405 391.998 144.566 392.037 144.705 392.121C144.822 392.213 144.918 392.329 144.986 392.463C145.089 392.669 145.163 392.888 145.206 393.115C145.294 393.543 145.284 393.985 145.178 394.409C145.072 394.832 144.873 395.227 144.594 395.563C144.132 396.103 143.476 396.438 142.768 396.497C142.309 396.553 141.843 396.48 141.423 396.286C141.132 396.125 141.012 395.995 141.032 395.965Z" fill="#263238"/>
<path d="M116.596 379.026L115.04 378.604L90.8262 402.136L71.1779 404.504C71.1779 404.504 71.3786 398.574 78.7542 391.007C85.3772 384.244 100.781 376.216 105.999 372.061C106.673 371.492 107.435 371.038 108.257 370.717L116.596 379.026Z" fill="#FFBE9D"/>
<path d="M116.606 367.827L119.085 367.124L124.925 364.355L131.568 366.833C131.568 366.833 131.418 369.101 129.672 368.479L136.636 370.777C136.636 370.777 136.064 372.433 135.753 372.543C135.442 372.654 139.837 373.015 139.837 373.015C139.837 373.015 139.837 375.253 135.672 375.212C131.508 375.172 129.892 374.46 129.892 374.46L126.551 375.353L126.681 377.36L131.237 377.29L131.026 379.839C129.091 380.247 127.135 380.549 125.166 380.742C125.166 380.742 118.142 380.842 116.235 379.919C114.328 378.996 111.9 377.681 111.9 377.681L108.257 370.737L116.606 367.827Z" fill="#FFBE9D"/>
<path d="M122.877 369.001C122.877 369.061 123.268 368.871 123.881 368.59C124.7 368.238 125.489 367.818 126.239 367.335H125.938L126.209 367.506C127.038 368.036 127.973 368.378 128.948 368.509C129.691 368.61 130.152 368.509 130.152 368.509C128.872 368.204 127.637 367.731 126.48 367.104L126.229 366.944L126.078 366.844L125.928 366.954C125.115 367.516 124.262 367.957 123.7 368.309C123.138 368.66 122.827 368.951 122.877 369.001Z" fill="#EB996E"/>
<path d="M125.015 372.543C125.015 372.543 125.467 372.704 126.139 372.413C126.812 372.122 127.564 371.409 128.518 371.008H128.277C128.705 371.296 129.154 371.551 129.621 371.77C130.796 372.332 132.073 372.646 133.374 372.694C133.909 372.762 134.452 372.704 134.96 372.523C133.201 372.382 131.475 371.969 129.842 371.299C129.398 371.092 128.968 370.854 128.558 370.586L128.427 370.516H128.317C127.233 371.068 126.601 371.801 126.009 372.102C125.417 372.403 125.015 372.463 125.015 372.543Z" fill="#EB996E"/>
<path d="M118.794 374.721C118.794 374.801 119.306 374.651 120.098 374.661C121.125 374.674 122.126 374.976 122.988 375.534C123.559 375.902 124.047 376.383 124.423 376.949L124.484 377.039H124.574C125.347 377.259 126.149 377.357 126.952 377.33C126.233 376.965 125.461 376.718 124.664 376.597L124.815 376.698C124.438 376.045 123.912 375.491 123.279 375.082C122.336 374.463 121.212 374.181 120.088 374.279C119.225 374.38 118.764 374.671 118.794 374.721Z" fill="#EB996E"/>
<path d="M111.9 377.661C111.96 377.714 112.028 377.758 112.1 377.792L112.733 378.153L115.161 379.467C115.735 379.82 116.352 380.096 116.997 380.29C117.774 380.471 118.562 380.598 119.356 380.672C121.062 380.842 123.008 380.912 125.166 380.912L127.785 380.641C128.754 380.561 129.714 380.396 130.655 380.15H130.755V380.019C130.896 379.146 131.046 378.193 131.207 377.22L131.257 376.939H130.976L126.641 377.119L126.902 377.34C126.902 376.728 126.812 376.045 126.771 375.333L126.581 375.594L129.932 374.701H129.762C131.389 375.196 133.079 375.452 134.779 375.463C135.661 375.519 136.546 375.475 137.418 375.333C137.895 375.274 138.353 375.115 138.763 374.866C139.173 374.616 139.525 374.283 139.797 373.888C139.948 373.624 140.037 373.329 140.058 373.025V372.794H139.807C138.803 372.704 137.73 372.614 136.716 372.503L135.973 372.403H135.813V372.453C135.843 372.48 135.865 372.515 135.876 372.554C135.886 372.594 135.885 372.635 135.873 372.674C135.873 372.764 135.692 372.884 135.733 372.844C135.791 372.82 135.846 372.786 135.893 372.744C136.002 372.631 136.093 372.502 136.164 372.363C136.396 371.902 136.597 371.426 136.766 370.938L136.856 370.687L136.606 370.607L129.581 368.319L129.421 368.78C129.703 368.884 130.006 368.919 130.304 368.881C130.609 368.826 130.887 368.667 131.086 368.429C131.422 367.992 131.618 367.464 131.648 366.914V366.743L131.468 366.673L124.815 364.224H124.734H124.654L118.824 367.024L116.385 367.727L114.258 368.479L110.886 369.703L108.769 370.486C108.518 370.561 108.276 370.662 108.046 370.787C108.301 370.731 108.552 370.661 108.799 370.576L110.946 369.884L114.348 368.75L116.476 368.038L118.924 367.375L124.785 364.636H124.614L131.257 367.134L131.096 366.894C131.07 367.341 130.913 367.77 130.645 368.128C130.5 368.272 130.315 368.368 130.114 368.404C129.913 368.44 129.707 368.413 129.521 368.329L129.36 368.8L136.315 371.108L136.154 370.777C136.001 371.24 135.809 371.69 135.582 372.122C135.539 372.212 135.485 372.296 135.422 372.373V372.373C135.45 372.408 135.47 372.449 135.482 372.493V372.493C135.381 372.232 135.482 372.423 135.411 372.373H135.341C135.295 372.411 135.263 372.464 135.251 372.523C135.241 372.566 135.243 372.611 135.255 372.653C135.267 372.695 135.29 372.733 135.321 372.764C135.401 372.844 135.381 372.814 135.401 372.824H135.492H135.702L136.475 372.925C137.479 373.045 138.482 373.135 139.576 373.226L139.345 372.975C139.322 373.183 139.257 373.384 139.154 373.567C138.921 373.895 138.623 374.17 138.277 374.376C137.931 374.581 137.547 374.713 137.148 374.761C136.312 374.897 135.463 374.937 134.619 374.881C132.985 374.876 131.36 374.64 129.792 374.179H129.692H129.621L126.28 375.082H126.079V375.283C126.079 375.975 126.169 376.658 126.209 377.29V377.531H126.45L130.775 377.33L130.535 377.059C130.384 378.062 130.233 378.996 130.103 379.869L130.223 379.708C129.327 379.933 128.414 380.09 127.494 380.18L124.895 380.471C122.758 380.471 120.821 380.471 119.125 380.31C118.342 380.257 117.564 380.15 116.797 379.989C116.166 379.81 115.559 379.554 114.991 379.226L112.522 378.002L111.87 377.701C111.98 377.681 111.91 377.651 111.9 377.661Z" fill="#EB996E"/>
<path d="M120.289 370.105C120.926 371.173 121.81 372.071 122.868 372.724C123.835 373.508 124.973 374.051 126.19 374.31C126.25 374.169 124.785 373.457 123.179 372.303C121.574 371.149 120.41 370.005 120.289 370.105Z" fill="#EB996E"/>
<path d="M71.3881 403.772L90.8256 402.136L113.745 410.857L118.763 413.927L111.618 438.432C111.618 438.432 75.7031 417.269 74.1778 415.463C72.8096 413.88 71.8419 411.992 71.3564 409.958C70.8709 407.923 70.8818 405.801 71.3881 403.772V403.772Z" fill="#FFB64F"/>
<path d="M175.151 421.784L181.834 425.929L166.4 486.69L169.2 521.722C165.186 525.194 155.151 528.174 136.085 527.09C117.019 526.007 104.295 517.708 104.295 517.708L106.121 481.673L110.466 441.011L115.333 413.205L130.024 414.268L135.754 410.877L138.323 412.161L141.614 421.293L150.184 415.091L160.219 410.264L163.882 417.098L175.151 421.784Z" fill="#FFB64F"/>
<path d="M115.332 420.279C115.118 420.711 114.943 421.161 114.81 421.624C114.489 422.507 114.088 423.791 113.606 425.397C112.379 429.576 111.374 433.816 110.596 438.101C109.841 442.385 109.311 446.706 109.01 451.046C108.9 452.712 108.85 454.056 108.839 454.99C108.788 455.473 108.788 455.961 108.839 456.445C108.935 455.968 108.992 455.485 109.01 455C109.1 453.996 109.211 452.662 109.351 451.076C109.662 447.765 110.194 443.189 111.087 438.191C111.98 433.194 113.044 428.718 113.897 425.497C114.308 423.962 114.66 422.677 114.901 421.684C115.096 421.233 115.241 420.762 115.332 420.279V420.279Z" fill="#263238"/>
<path d="M144.353 420.761C144.842 420.677 145.311 420.504 145.737 420.249C146.926 419.623 147.955 418.734 148.748 417.65L148.387 417.55C148.596 420.543 149.2 423.496 150.183 426.33L150.293 426.651L150.574 426.461L151.277 425.969C154.739 423.591 157.85 421.413 160.087 419.808L162.716 417.891C163.052 417.672 163.362 417.417 163.64 417.128C163.284 417.287 162.947 417.486 162.636 417.72L159.917 419.507C157.619 421.022 154.478 423.159 151.026 425.528L150.313 426.009L150.715 426.14C149.74 423.346 149.107 420.445 148.828 417.5V416.958L148.517 417.399C147.771 418.465 146.81 419.364 145.697 420.038C144.824 420.53 144.333 420.711 144.353 420.761Z" fill="#263238"/>
<path d="M130.615 415.352C131.606 416.668 132.696 417.906 133.877 419.055L134.057 419.246L134.238 419.045C134.912 418.256 135.639 417.515 136.415 416.827C136.837 416.466 137.248 416.125 137.66 415.824L138.272 415.372C138.318 415.361 138.365 415.354 138.412 415.352C138.412 415.352 138.412 415.352 138.503 415.503L139.436 417.891C139.69 418.645 140.027 419.368 140.439 420.048C140.315 419.263 140.099 418.496 139.797 417.76C139.536 417.008 139.255 416.195 138.964 415.332C138.938 415.24 138.893 415.155 138.833 415.081C138.772 415.006 138.698 414.945 138.613 414.901C138.516 414.868 138.412 414.859 138.311 414.875C138.21 414.891 138.114 414.93 138.031 414.991L137.389 415.452C136.957 415.764 136.526 416.115 136.104 416.456C135.305 417.158 134.566 417.927 133.897 418.754H134.258C133.134 417.527 131.916 416.39 130.615 415.352V415.352Z" fill="#263238"/>
<path d="M134.589 524.461C128.155 523.253 121.527 523.581 115.245 525.419C108.962 527.257 103.202 530.553 98.4348 535.038C93.6671 539.524 90.0263 545.072 87.8088 551.23C85.5913 557.389 84.8598 563.985 85.6738 570.48C86.4879 576.975 88.8245 583.186 92.4934 588.607C96.1623 594.028 101.06 598.506 106.787 601.676C112.514 604.846 118.909 606.619 125.451 606.85C131.993 607.08 138.497 605.763 144.433 603.004V603.004C152.413 599.288 159.008 593.134 163.266 585.43C167.525 577.725 169.227 568.867 168.128 560.133C167.028 551.399 163.184 543.239 157.149 536.83C151.115 530.421 143.201 526.093 134.548 524.471L134.589 524.461ZM119.767 603.415C110.692 601.701 102.528 596.801 96.7461 589.599C90.9645 582.397 87.9457 573.366 88.234 564.135C88.5222 554.904 92.0984 546.079 98.3181 539.252C104.538 532.425 112.992 528.044 122.156 526.898C131.32 525.753 140.592 527.92 148.301 533.007C156.009 538.094 161.647 545.767 164.197 554.644C166.748 563.52 166.044 573.016 162.212 581.419C158.381 589.822 151.673 596.58 143.299 600.475C135.955 603.891 127.725 604.919 119.767 603.415V603.415Z" fill="#455A64"/>
<path d="M126.992 608.895C137.94 608.91 148.496 604.822 156.578 597.437C164.66 590.053 169.681 579.908 170.652 569.004C171.622 558.099 168.472 547.227 161.821 538.531C155.171 529.835 145.503 523.947 134.725 522.028C123.947 520.109 112.841 522.299 103.598 528.165C94.3544 534.031 87.6447 543.147 84.7921 553.717C81.9395 564.286 83.1509 575.541 88.1876 585.261C93.2242 594.981 101.72 602.461 112 606.225C116.802 607.99 121.877 608.894 126.992 608.895V608.895ZM126.902 528.505C132.022 528.502 137.086 529.566 141.77 531.632C146.455 533.697 150.657 536.718 154.107 540.5C157.558 544.282 160.181 548.743 161.808 553.597C163.436 558.451 164.033 563.592 163.56 568.69C163.087 573.787 161.556 578.73 159.063 583.203C156.571 587.675 153.172 591.577 149.085 594.661C144.998 597.744 140.313 599.94 135.328 601.109C130.344 602.278 125.17 602.394 120.138 601.449V601.449C114.395 600.359 108.992 597.922 104.374 594.337C99.756 590.752 96.0553 586.122 93.5762 580.827C90.9712 575.222 89.8194 569.052 90.2272 562.885C90.635 556.717 92.5892 550.752 95.9096 545.539C99.23 540.326 103.81 536.033 109.226 533.056C114.642 530.079 120.721 528.514 126.902 528.505V528.505Z" fill="#455A64"/>
<path d="M228.053 524.732L227.682 523.829C226.899 521.892 225.173 520.758 223.829 521.31L163.078 546.026C162.777 546.146 162.676 546.598 162.847 547.029L165.436 553.392C165.616 553.823 165.998 554.074 166.299 553.953L227.05 529.187C228.395 528.636 228.846 526.629 228.053 524.732Z" fill="#455A64"/>
<path d="M171.316 454.729L178.622 478.903L174.959 528.174L185.736 529.529C185.736 529.529 198.079 487.603 196.855 480.017C195.631 472.43 190.593 450.333 190.593 450.333L171.316 454.729Z" fill="#FFBE9D"/>
<path d="M174.989 527.823L169.971 536.393L166.841 544.42L171.527 542.584C171.527 542.584 173.534 552.278 174.347 552.529C175.159 552.779 177.417 551.997 177.187 550.14C177.521 550.466 177.925 550.711 178.369 550.857C178.812 551.003 179.283 551.047 179.745 550.983C181.17 550.692 181.512 549.769 181.351 547.973C181.351 547.973 183.007 549.317 184 548.485C184.304 548.185 184.541 547.824 184.695 547.427C184.849 547.029 184.916 546.603 184.893 546.177C184.893 546.177 187.051 546.357 187.352 545.243C187.669 543.413 187.709 541.546 187.472 539.704C187.221 538.48 186.178 533.502 186.178 533.502L185.696 529.489L174.989 527.823Z" fill="#FFBE9D"/>
<path d="M176.164 544.551C176.555 545.423 176.809 546.351 176.916 547.301C177.164 548.226 177.269 549.184 177.227 550.141C176.834 549.269 176.58 548.341 176.475 547.391C176.227 546.466 176.122 545.508 176.164 544.551V544.551Z" fill="#EB996E"/>
<path d="M180.558 543.437C180.926 544.114 181.155 544.857 181.23 545.624C181.453 546.365 181.532 547.142 181.461 547.912C181.101 547.229 180.873 546.483 180.789 545.715C180.571 544.976 180.493 544.204 180.558 543.437V543.437Z" fill="#EB996E"/>
<path d="M184.231 542.403C184.449 543.012 184.565 543.653 184.573 544.3C184.743 545.303 185.014 546.156 184.884 546.206C184.438 545.694 184.173 545.048 184.131 544.37C183.979 543.718 184.014 543.036 184.231 542.403V542.403Z" fill="#EB996E"/>
<path d="M171.196 539.784C171.584 540.64 171.854 541.545 171.999 542.474C172.289 543.368 172.465 544.295 172.521 545.233C172.036 544.419 171.712 543.52 171.567 542.584C171.271 541.682 171.145 540.733 171.196 539.784V539.784Z" fill="#EB996E"/>
<path d="M197.448 496.293C197.448 495.47 200.819 483.99 199.796 478.039C198.772 472.089 186.53 431.879 184.884 429.009C183.587 427.073 181.777 425.538 179.656 424.574C177.294 425.854 175.213 427.597 173.539 429.699C171.865 431.8 170.632 434.218 169.912 436.806C167.453 445.627 167.453 456.695 167.453 456.695L177.298 481.11L176.124 494.978L197.448 496.293Z" fill="#FFB64F"/>
<path d="M168.076 455.893C168.176 455.893 167.986 454.087 168.076 451.196C168.138 449.516 168.302 447.84 168.568 446.179C169.205 442.082 170.464 438.106 172.301 434.388C173.047 432.87 173.885 431.399 174.809 429.983C176.395 427.554 177.579 426.2 177.509 426.139C177.182 426.411 176.886 426.717 176.626 427.053C175.875 427.905 175.178 428.803 174.538 429.742C173.562 431.145 172.684 432.614 171.909 434.137C170.009 437.886 168.731 441.919 168.126 446.079C167.886 447.774 167.758 449.484 167.745 451.196C167.729 452.346 167.786 453.496 167.915 454.638C167.929 455.061 167.983 455.481 168.076 455.893V455.893Z" fill="#263238"/>
<path d="M168.707 461C168.953 462.031 169.288 463.039 169.711 464.011C170.423 465.867 171.497 468.386 172.721 471.136L175.892 478.16C176.278 479.158 176.734 480.127 177.257 481.06C177.011 480.029 176.676 479.022 176.253 478.05C175.541 476.193 174.467 473.675 173.243 470.925L170.072 463.901C169.686 462.903 169.23 461.934 168.707 461V461Z" fill="#263238"/>
<path d="M176.725 482.054C178.891 480.898 181.146 479.918 183.469 479.124C185.845 478.503 188.268 478.077 190.714 477.849C189.996 477.692 189.257 477.652 188.526 477.729C186.76 477.813 185.011 478.113 183.318 478.622C181.623 479.129 179.998 479.847 178.481 480.759C177.831 481.094 177.238 481.531 176.725 482.054V482.054Z" fill="#263238"/>
<path d="M112.643 551.204C112.552 551.315 120.46 558.229 130.314 566.668C140.168 575.107 148.226 581.841 148.317 581.72C148.407 581.6 140.499 574.696 130.645 566.267C120.791 557.837 112.733 551.094 112.643 551.204Z" fill="white"/>
<path d="M102.468 551.204C102.367 551.315 109.03 557.225 117.349 564.34C125.668 571.455 132.472 577.195 132.572 577.084C132.672 576.974 125.999 571.063 117.69 563.948C109.382 556.834 102.558 551.094 102.468 551.204Z" fill="white"/>
<path d="M87.4844 565.303C87.4844 565.303 87.4844 565.092 87.5447 564.671C87.6049 564.249 87.6049 563.607 87.6651 562.794C87.6651 562.383 87.6651 561.921 87.7454 561.419C87.8256 560.918 87.9059 560.366 87.9962 559.764C88.0865 559.162 88.1869 558.529 88.2973 557.847C88.4077 557.165 88.6385 556.462 88.8091 555.699C89.735 552.011 91.2099 548.483 93.1842 545.233C95.7682 540.915 99.1579 537.133 103.169 534.094L104.865 532.83C105.467 532.439 106.089 532.087 106.711 531.706C107.333 531.325 107.946 530.903 108.628 530.592L110.635 529.589L111.638 529.097L112.732 528.706L114.94 527.903C115.692 527.652 116.475 527.491 117.248 527.281C118.029 527.053 118.823 526.872 119.626 526.739C121.263 526.435 122.92 526.244 124.583 526.167C125.426 526.167 126.279 526.056 127.142 526.067L129.731 526.207C130.173 526.207 130.614 526.207 131.046 526.287L132.35 526.488C133.223 526.639 134.116 526.739 134.99 526.919C136.764 527.316 138.511 527.829 140.218 528.455C141.969 529.087 143.676 529.838 145.325 530.703C146.158 531.154 146.951 531.706 147.774 532.158C148.175 532.419 148.597 532.639 148.978 532.92L150.132 533.793C153.359 536.094 156.181 538.915 158.481 542.142L159.384 543.347L160.177 544.641L160.96 545.936C161.237 546.361 161.482 546.807 161.692 547.27L163.017 550.03C163.378 551.033 163.729 551.966 164.081 552.94C166.777 560.961 166.777 569.644 164.081 577.666C163.719 578.669 163.368 579.603 163.017 580.566C162.666 581.529 162.124 582.412 161.682 583.335L161.351 584.018L160.95 584.67L160.167 585.965L159.374 587.259L158.471 588.463C157.296 590.047 156.019 591.552 154.648 592.969C153.247 594.323 151.763 595.586 150.202 596.752L149.048 597.615C148.657 597.906 148.236 598.117 147.834 598.378C147.011 598.859 146.219 599.381 145.396 599.833C143.744 600.7 142.034 601.451 140.278 602.081C138.571 602.707 136.824 603.22 135.05 603.616C134.177 603.797 133.284 603.897 132.411 604.047L131.106 604.248C130.664 604.308 130.233 604.298 129.791 604.328L127.202 604.469C126.339 604.469 125.486 604.399 124.644 604.369C122.98 604.292 121.324 604.101 119.686 603.797C118.883 603.668 118.088 603.487 117.308 603.255C116.535 603.044 115.743 602.883 115 602.643L112.792 601.83L111.699 601.438L110.695 600.947L108.688 599.943C108.006 599.632 107.404 599.191 106.771 598.829C106.139 598.468 105.527 598.097 104.925 597.705L103.229 596.441C99.2157 593.405 95.8256 589.623 93.2445 585.302C91.2555 582.078 89.7605 578.574 88.8091 574.906C88.6385 574.144 88.3776 573.451 88.2973 572.759C88.217 572.066 88.0865 571.434 87.9962 570.842C87.9059 570.25 87.7955 569.698 87.7454 569.196C87.6952 568.695 87.6851 568.193 87.6651 567.812C87.6049 567.009 87.5647 566.387 87.5447 565.945C87.5447 565.524 87.4844 565.303 87.4844 565.303C87.4844 565.303 87.4844 565.524 87.4844 565.945C87.4844 566.367 87.4845 567.009 87.5547 567.822C87.5547 568.236 87.5748 568.698 87.6149 569.206C87.6149 569.708 87.7554 570.26 87.8357 570.862L88.1167 572.789C88.2475 573.519 88.415 574.243 88.6184 574.956C89.5035 578.68 90.959 582.244 92.9334 585.523C95.5189 589.895 98.9266 593.726 102.968 596.802L104.674 598.087C105.276 598.478 105.908 598.849 106.531 599.231C107.153 599.612 107.775 600.044 108.457 600.365L110.514 601.368L111.518 601.86L112.622 602.271L114.85 603.084C115.602 603.345 116.395 603.506 117.188 603.716C117.973 603.957 118.774 604.141 119.586 604.268C121.242 604.584 122.919 604.782 124.603 604.86C125.466 604.86 126.319 604.981 127.192 604.971L129.822 604.84C130.253 604.84 130.705 604.84 131.146 604.76L132.471 604.559C133.354 604.409 134.247 604.308 135.14 604.128C136.935 603.731 138.702 603.215 140.428 602.582C142.21 601.952 143.944 601.194 145.616 600.314C146.449 599.863 147.252 599.311 148.085 598.849C148.496 598.588 148.928 598.368 149.319 598.077L150.453 597.184C152.04 596.012 153.545 594.735 154.959 593.36C156.363 591.922 157.664 590.386 158.852 588.764L159.776 587.55L160.568 586.236L161.371 584.921L161.773 584.269L162.114 583.566L163.499 580.767L164.582 577.826C167.319 569.688 167.319 560.878 164.582 552.739L163.499 549.819C163.047 548.886 162.595 547.953 162.154 547.019C161.936 546.552 161.688 546.1 161.411 545.665L160.609 544.35L159.806 543.046L158.893 541.831C157.698 540.215 156.397 538.679 154.999 537.235C153.585 535.861 152.08 534.583 150.493 533.412L149.319 532.539C148.925 532.257 148.516 531.996 148.095 531.756C147.262 531.275 146.459 530.753 145.626 530.291C143.952 529.416 142.218 528.658 140.438 528.023C138.712 527.391 136.945 526.874 135.15 526.478C134.257 526.297 133.364 526.197 132.481 526.046L131.156 525.846C130.715 525.796 130.273 525.796 129.832 525.765L127.202 525.635C126.339 525.635 125.476 525.715 124.623 525.745C122.939 525.823 121.262 526.021 119.606 526.337C118.797 526.475 117.996 526.659 117.208 526.889C116.425 527.1 115.632 527.271 114.87 527.522L112.642 528.334L111.548 528.746L110.545 529.248L108.538 530.251C107.873 530.592 107.227 530.967 106.601 531.375C105.979 531.756 105.347 532.128 104.744 532.519L103.038 533.803C98.9968 536.88 95.5892 540.71 93.0036 545.083C91.0293 548.361 89.5737 551.926 88.6886 555.649C88.518 556.412 88.2672 557.124 88.1869 557.817C88.1066 558.509 87.9962 559.151 87.9059 559.744C87.8156 560.336 87.7253 560.898 87.6851 561.399C87.645 561.901 87.6851 562.403 87.6249 562.784C87.6249 563.597 87.6249 564.219 87.5547 564.661C87.4845 565.102 87.4844 565.303 87.4844 565.303Z" fill="#263238"/>
<path d="M102.045 586.246C101.738 585.778 101.403 585.329 101.041 584.901C100.129 583.699 99.2915 582.442 98.5327 581.138C95.9939 576.85 94.4107 572.064 93.8911 567.107C93.3716 562.15 93.9279 557.14 95.5223 552.418C96.0033 550.987 96.5627 549.583 97.1981 548.214C97.4667 547.727 97.6982 547.22 97.8905 546.698C97.8905 546.698 97.7901 546.809 97.6396 547.05C97.4891 547.291 97.2683 547.642 97.0175 548.123C96.3021 549.467 95.6883 550.863 95.1811 552.298C93.4615 557.051 92.839 562.131 93.3603 567.158C93.8817 572.186 95.5333 577.03 98.1915 581.329C98.9913 582.626 99.8834 583.863 100.861 585.032C101.202 585.443 101.503 585.744 101.694 585.955C101.884 586.166 102.025 586.256 102.045 586.246Z" fill="#263238"/>
<path d="M104.122 589.848C104.051 589.979 104.363 590.29 104.814 590.551C105.266 590.811 105.697 590.912 105.767 590.791C105.838 590.671 105.527 590.35 105.075 590.089C104.623 589.828 104.192 589.728 104.122 589.848Z" fill="#263238"/>
<path d="M155.863 582.192C155.964 582.046 156.045 581.887 156.104 581.72C156.245 581.409 156.465 580.948 156.696 580.325C157.364 578.583 157.898 576.791 158.292 574.967C159.613 568.911 159.458 562.627 157.841 556.643C156.223 550.66 153.191 545.153 148.999 540.587C147.747 539.202 146.384 537.92 144.925 536.754C144.424 536.333 143.992 536.052 143.711 535.841C143.43 535.63 143.28 535.54 143.259 535.56C143.239 535.58 143.801 536.052 144.795 536.915C146.192 538.129 147.506 539.437 148.728 540.828C152.798 545.407 155.748 550.869 157.343 556.783C158.938 562.698 159.136 568.902 157.92 574.907C157.557 576.719 157.074 578.506 156.475 580.255C156.084 581.499 155.823 582.182 155.863 582.192Z" fill="white"/>
<path d="M132.571 533.011C134.085 533.481 135.685 533.615 137.257 533.402C136.528 533.078 135.736 532.921 134.939 532.941C134.154 532.792 133.345 532.816 132.571 533.011V533.011Z" fill="white"/>
</g>
<defs>
<filter id="filter0_d_1189_2" x="0" y="0" width="99" height="119.118" filterUnits="userSpaceOnUse" color-interpolation-filters="sRGB">
<feFlood flood-opacity="0" result="BackgroundImageFix"/>
<feColorMatrix in="SourceAlpha" type="matrix" values="0 0 0 0 0 0 0 0 0 0 0 0 0 0 0 0 0 0 127 0" result="hardAlpha"/>
<feOffset dy="4"/>
<feGaussianBlur stdDeviation="2"/>
<feComposite in2="hardAlpha" operator="out"/>
<feColorMatrix type="matrix" values="0 0 0 0 0 0 0 0 0 0 0 0 0 0 0 0 0 0 0.25 0"/>
<feBlend mode="normal" in2="BackgroundImageFix" result="effect1_dropShadow_1189_2"/>
<feBlend mode="normal" in="SourceGraphic" in2="effect1_dropShadow_1189_2" result="shape"/>
</filter>
<filter id="filter1_d_1189_2" x="257" y="18" width="148.608" height="76.3933" filterUnits="userSpaceOnUse" color-interpolation-filters="sRGB">
<feFlood flood-opacity="0" result="BackgroundImageFix"/>
<feColorMatrix in="SourceAlpha" type="matrix" values="0 0 0 0 0 0 0 0 0 0 0 0 0 0 0 0 0 0 127 0" result="hardAlpha"/>
<feOffset dy="4"/>
<feGaussianBlur stdDeviation="2"/>
<feComposite in2="hardAlpha" operator="out"/>
<feColorMatrix type="matrix" values="0 0 0 0 0 0 0 0 0 0 0 0 0 0 0 0 0 0 0.25 0"/>
<feBlend mode="normal" in2="BackgroundImageFix" result="effect1_dropShadow_1189_2"/>
<feBlend mode="normal" in="SourceGraphic" in2="effect1_dropShadow_1189_2" result="shape"/>
</filter>
<filter id="filter2_d_1189_2" x="67" y="221.628" width="399.997" height="475.585" filterUnits="userSpaceOnUse" color-interpolation-filters="sRGB">
<feFlood flood-opacity="0" result="BackgroundImageFix"/>
<feColorMatrix in="SourceAlpha" type="matrix" values="0 0 0 0 0 0 0 0 0 0 0 0 0 0 0 0 0 0 127 0" result="hardAlpha"/>
<feOffset dy="4"/>
<feGaussianBlur stdDeviation="2"/>
<feComposite in2="hardAlpha" operator="out"/>
<feColorMatrix type="matrix" values="0 0 0 0 0 0 0 0 0 0 0 0 0 0 0 0 0 0 0.25 0"/>
<feBlend mode="normal" in2="BackgroundImageFix" result="effect1_dropShadow_1189_2"/>
<feBlend mode="normal" in="SourceGraphic" in2="effect1_dropShadow_1189_2" result="shape"/>
</filter>
</defs>
</svg>
