<svg width="406" height="120" viewBox="0 0 406 120" fill="none" xmlns="http://www.w3.org/2000/svg">
<g filter="url(#filter0_d_1259_2)">
<path d="M58.4343 110.298L7.81699 83.6075C6.98487 83.1696 6.24738 82.5718 5.64683 81.8483C5.04628 81.1247 4.59448 80.2898 4.31734 79.3912C4.0402 78.4927 3.94317 77.5483 4.03182 76.6122C4.12048 75.6761 4.39307 74.7667 4.83396 73.9362L41.8235 3.81925C42.7144 2.14096 44.2334 0.883497 46.0485 0.321609C47.8636 -0.240279 49.8273 -0.0609113 51.5106 0.820519L83.6802 17.7767L95 56.509L68.1213 107.299C67.2304 108.977 65.7115 110.235 63.8964 110.797C62.0813 111.359 60.1176 111.179 58.4343 110.298Z" fill="#029491"/>
<g opacity="0.3">
<path d="M83.6803 17.7761L73.2554 37.4955C72.4342 39.0601 72.2656 40.8861 72.7862 42.5746C73.3069 44.2631 74.4746 45.677 76.0343 46.5074L95.0001 56.5084L83.6803 17.7761Z" fill="white"/>
</g>
<g opacity="0.2">
<path d="M72.5477 39.3643C71.7699 40.8641 71.5281 42.5847 71.8622 44.2409C72.1962 45.897 73.0862 47.3893 74.3846 48.4704L74.9341 48.9257C77.1792 50.6841 91.9374 62.1923 92.2043 61.8155C92.4712 61.4387 94.9989 56.5088 94.9989 56.5088L76.0331 46.5078C76.0331 46.5078 71.3231 43.8388 72.5477 39.3643Z" fill="black"/>
</g>
<path d="M69.3769 34.4503C69.2356 34.7015 63.8975 32.1424 57.4291 28.7198C50.9606 25.2971 45.8266 22.3455 45.9993 22.0786C46.1721 21.8117 51.4944 24.3865 57.9629 27.8091C64.4313 31.2318 69.5496 34.1991 69.3769 34.4503Z" fill="#FAFAFA"/>
<path d="M78.6097 53.6515C78.4841 53.9027 69.7391 49.5538 59.0944 43.9331C48.4497 38.3125 39.9402 33.4925 40.0658 33.2413C40.1914 32.9901 48.9364 37.3391 59.5811 42.9597C70.2258 48.5804 78.751 53.3375 78.6097 53.6515Z" fill="#FAFAFA"/>
<path d="M77.1646 64.7361C77.039 64.9873 67.5247 60.2301 55.9223 54.0914C44.3199 47.9526 35.0097 42.8029 35.151 42.5517C35.2923 42.3005 44.8066 47.0577 56.409 53.1808C68.0114 59.3038 77.3059 64.4849 77.1646 64.7361Z" fill="#FAFAFA"/>
<path d="M72.5348 73.5122C72.3935 73.7634 62.8792 69.0062 51.2767 62.8832C39.6743 56.7601 30.3798 51.5791 30.5211 51.3279C30.6624 51.0767 40.161 55.8338 51.7634 61.9569C63.3659 68.0799 72.6918 73.261 72.5348 73.5122Z" fill="#FAFAFA"/>
<path d="M67.886 82.3042C67.7604 82.5554 58.2461 77.7982 46.6437 71.6594C35.0413 65.5207 25.7468 60.371 25.8724 60.1198C25.998 59.8686 35.528 64.6415 47.1304 70.7488C58.7328 76.8562 67.9802 82.053 67.886 82.3042Z" fill="#FAFAFA"/>
<path d="M63.2711 91.0803C63.1298 91.3315 53.6155 86.5744 42.0288 80.4513C30.442 74.3282 21.1161 69.1472 21.2574 68.896C21.3987 68.6448 30.8973 73.4019 42.4998 79.525C54.1022 85.6481 63.3967 90.8291 63.2711 91.0803Z" fill="#FAFAFA"/>
</g>
<g filter="url(#filter1_d_1259_2)">
<path d="M264.84 78.2402C263.666 78.0718 262.607 77.4443 261.895 76.4954C261.183 75.5465 260.878 74.3539 261.045 73.1796L266.579 34.6746C266.753 33.7065 267.303 32.8469 268.11 32.284C268.916 31.721 269.913 31.5006 270.882 31.6709L274.496 32.1959C275.203 32.305 275.926 32.2164 276.585 31.9399C277.244 31.6635 277.814 31.2099 278.232 30.6295L279.239 29.1579C279.656 28.5775 280.226 28.124 280.885 27.8475C281.544 27.571 282.267 27.4824 282.974 27.5915L300.187 30.0616C300.834 30.1477 301.449 30.3955 301.976 30.782C302.502 31.1686 302.923 31.6815 303.199 32.2734L303.853 33.7365C304.128 34.3273 304.548 34.8394 305.072 35.2259C305.597 35.6124 306.211 35.8608 306.857 35.9483L328.76 39.0983C329.736 39.2065 330.63 39.6977 331.245 40.4641C331.86 41.2305 332.145 42.2096 332.039 43.1863L326.376 82.5606C326.293 83.1417 326.096 83.7007 325.796 84.2055C325.497 84.7104 325.101 85.1513 324.631 85.503C324.161 85.8547 323.626 86.1103 323.057 86.2552C322.488 86.4001 321.896 86.4314 321.315 86.3475L264.84 78.2402Z" fill="#455A64"/>
<g opacity="0.3">
<path d="M264.84 78.2402C263.666 78.0718 262.607 77.4443 261.895 76.4954C261.183 75.5465 260.878 74.3539 261.045 73.1796L266.579 34.6746C266.753 33.7065 267.303 32.8469 268.11 32.284C268.916 31.721 269.913 31.5006 270.882 31.6709L274.496 32.1959C275.203 32.305 275.926 32.2164 276.585 31.9399C277.244 31.6635 277.814 31.2099 278.232 30.6295L279.239 29.1579C279.656 28.5775 280.226 28.124 280.885 27.8475C281.544 27.571 282.267 27.4824 282.974 27.5915L300.187 30.0616C300.834 30.1477 301.449 30.3955 301.976 30.782C302.502 31.1686 302.923 31.6815 303.199 32.2734L303.853 33.7365C304.128 34.3273 304.548 34.8394 305.072 35.2259C305.597 35.6124 306.211 35.8608 306.857 35.9483L328.76 39.0983C329.736 39.2065 330.63 39.6977 331.245 40.4641C331.86 41.2305 332.145 42.2096 332.039 43.1863L326.376 82.5606C326.293 83.1417 326.096 83.7007 325.796 84.2055C325.497 84.7104 325.101 85.1513 324.631 85.503C324.161 85.8547 323.626 86.1103 323.057 86.2552C322.488 86.4001 321.896 86.4314 321.315 86.3475L264.84 78.2402Z" fill="black"/>
</g>
<path d="M304.662 35.6472L290.736 33.6075L289.824 31.103C289.511 30.2852 288.982 29.5672 288.294 29.0248C287.607 28.4825 286.785 28.136 285.917 28.0219L272.301 26.0683C271.185 25.8696 270.035 26.1198 269.102 26.7645C268.169 27.4091 267.528 28.3961 267.318 29.5108L267.095 31.103L261.07 72.9044C260.932 74.1883 261.307 75.4749 262.113 76.4839C262.919 77.4929 264.091 78.1427 265.373 78.292L320.721 86.3131C321.994 86.5361 323.304 86.2456 324.364 85.5053C325.423 84.765 326.147 83.6351 326.375 82.3628L332.056 42.8766C332.118 42.4576 332.096 42.0306 331.993 41.6199C331.889 41.2093 331.705 40.8233 331.451 40.4841C331.198 40.1449 330.879 39.8593 330.515 39.6436C330.15 39.4279 329.747 39.2865 329.327 39.2275L304.662 35.6472Z" fill="#455A64"/>
<path d="M315.846 52.8257L282.921 48.0928L280.93 61.9444L313.855 66.6773L315.846 52.8257Z" fill="white"/>
<path d="M309.878 58.2132C309.878 58.3337 304.782 57.7054 298.534 56.8104C292.286 55.9153 287.234 55.0891 287.26 54.96C287.286 54.8309 292.355 55.4678 298.603 56.3628C304.851 57.2579 309.895 58.0927 309.878 58.2132Z" fill="#263238"/>
<path d="M309.456 61.1651C309.456 61.2856 304.361 60.6573 298.113 59.7623C291.865 58.8672 286.813 58.041 286.83 57.9119C286.847 57.7828 291.925 58.4197 298.173 59.3147C304.422 60.2098 309.474 61.0446 309.456 61.1651Z" fill="#263238"/>
<path d="M364.753 61.1309C364.391 61.2676 364.005 61.3315 363.618 61.3189C363.231 61.3063 362.851 61.2176 362.498 61.0577C362.146 60.8978 361.828 60.6699 361.564 60.3871C361.299 60.1043 361.093 59.7722 360.958 59.4097L351.835 35.5699C351.73 35.2682 351.686 34.9488 351.706 34.6301C351.725 34.3113 351.807 33.9995 351.947 33.7125C352.086 33.4255 352.282 33.1689 352.521 32.9574C352.76 32.746 353.039 32.5838 353.341 32.4802L355.578 31.6196C356.016 31.453 356.401 31.1703 356.69 30.8019C356.98 30.4335 357.164 29.9932 357.222 29.5282L357.326 28.3664C357.378 27.8995 357.56 27.4566 357.851 27.0872C358.141 26.7178 358.528 26.4366 358.969 26.275L369.607 22.1956C370.007 22.041 370.439 21.9883 370.864 22.0424C371.289 22.0965 371.694 22.2556 372.043 22.5054L372.903 23.1336C373.251 23.382 373.654 23.5402 374.078 23.5943C374.501 23.6484 374.932 23.5966 375.33 23.4435L388.894 18.2796C389.49 18.0304 390.16 18.0271 390.759 18.2707C391.357 18.5142 391.834 18.9846 392.087 19.5792L401.416 43.9612C401.554 44.3233 401.619 44.7091 401.607 45.0963C401.595 45.4836 401.506 45.8646 401.346 46.2174C401.186 46.5703 400.958 46.888 400.675 47.1521C400.391 47.4163 400.058 47.6217 399.695 47.7566L364.753 61.1309Z" fill="#029491"/>
<g opacity="0.3">
<path d="M364.752 61.1307C364.39 61.2674 364.004 61.3312 363.617 61.3187C363.23 61.3061 362.85 61.2173 362.497 61.0574C362.145 60.8976 361.827 60.6697 361.563 60.3869C361.298 60.1041 361.092 59.7719 360.957 59.4094L351.834 35.5697C351.729 35.2679 351.685 34.9486 351.705 34.6298C351.724 34.3111 351.806 33.9993 351.946 33.7123C352.086 33.4252 352.281 33.1686 352.52 32.9572C352.759 32.7457 353.038 32.5836 353.34 32.48L355.578 31.6193C356.016 31.4527 356.4 31.1701 356.689 30.8016C356.979 30.4332 357.163 29.9929 357.221 29.528L357.325 28.3661C357.377 27.8993 357.559 27.4563 357.85 27.087C358.14 26.7176 358.527 26.4364 358.968 26.2747L369.606 22.1953C370.006 22.0407 370.438 21.9881 370.863 22.0422C371.288 22.0963 371.693 22.2554 372.042 22.5051L372.902 23.1334C373.25 23.3817 373.653 23.54 374.077 23.5941C374.5 23.6481 374.931 23.5963 375.329 23.4432L388.893 18.2794C389.489 18.0301 390.159 18.0269 390.758 18.2704C391.356 18.5139 391.833 18.9844 392.086 19.579L401.415 43.9609C401.553 44.323 401.618 44.7088 401.606 45.0961C401.594 45.4833 401.505 45.8643 401.345 46.2172C401.185 46.57 400.957 46.8877 400.674 47.1519C400.39 47.4161 400.057 47.6215 399.694 47.7564L364.752 61.1307Z" fill="black"/>
</g>
<path d="M373.979 23.9768L365.372 27.2645L364.047 26.1198C363.608 25.7492 363.077 25.5053 362.509 25.4143C361.942 25.3233 361.361 25.3887 360.828 25.6034L352.394 28.8308C351.691 29.0804 351.116 29.5979 350.793 30.2703C350.471 30.9427 350.427 31.7155 350.673 32.4197L351.051 33.4008L360.957 59.2889C361.29 60.071 361.917 60.6904 362.704 61.0126C363.49 61.3349 364.372 61.334 365.157 61.0102L399.419 47.894C400.224 47.6164 400.885 47.0308 401.258 46.2658C401.631 45.5009 401.685 44.6192 401.408 43.8146L392.044 19.3552C391.842 18.8314 391.44 18.4093 390.927 18.1817C390.413 17.9542 389.831 17.9398 389.307 18.1417L373.979 23.9768Z" fill="#029491"/>
<path d="M385.878 30.2353L365.487 38.0422L368.771 46.6182L389.162 38.8112L385.878 30.2353Z" fill="white"/>
<path d="M384.176 35.2515C381.928 36.3555 379.614 37.3212 377.248 38.1432C374.94 39.11 372.574 39.9349 370.165 40.6132C372.403 39.5193 374.702 38.5539 377.05 37.7215C379.375 36.7577 381.754 35.9329 384.176 35.2515Z" fill="#263238"/>
<path d="M384.875 37.0845C382.637 38.1769 380.338 39.1395 377.99 39.9676C375.657 40.9275 373.269 41.7466 370.838 42.4205C373.086 41.3164 375.4 40.3507 377.766 39.5287C380.084 38.5712 382.458 37.7549 384.875 37.0845Z" fill="#263238"/>
</g>
<defs>
<filter id="filter0_d_1259_2" x="0" y="0" width="99" height="119.118" filterUnits="userSpaceOnUse" color-interpolation-filters="sRGB">
<feFlood flood-opacity="0" result="BackgroundImageFix"/>
<feColorMatrix in="SourceAlpha" type="matrix" values="0 0 0 0 0 0 0 0 0 0 0 0 0 0 0 0 0 0 127 0" result="hardAlpha"/>
<feOffset dy="4"/>
<feGaussianBlur stdDeviation="2"/>
<feComposite in2="hardAlpha" operator="out"/>
<feColorMatrix type="matrix" values="0 0 0 0 0 0 0 0 0 0 0 0 0 0 0 0 0 0 0.25 0"/>
<feBlend mode="normal" in2="BackgroundImageFix" result="effect1_dropShadow_1259_2"/>
<feBlend mode="normal" in="SourceGraphic" in2="effect1_dropShadow_1259_2" result="shape"/>
</filter>
<filter id="filter1_d_1259_2" x="257" y="18" width="148.608" height="76.3933" filterUnits="userSpaceOnUse" color-interpolation-filters="sRGB">
<feFlood flood-opacity="0" result="BackgroundImageFix"/>
<feColorMatrix in="SourceAlpha" type="matrix" values="0 0 0 0 0 0 0 0 0 0 0 0 0 0 0 0 0 0 127 0" result="hardAlpha"/>
<feOffset dy="4"/>
<feGaussianBlur stdDeviation="2"/>
<feComposite in2="hardAlpha" operator="out"/>
<feColorMatrix type="matrix" values="0 0 0 0 0 0 0 0 0 0 0 0 0 0 0 0 0 0 0.25 0"/>
<feBlend mode="normal" in2="BackgroundImageFix" result="effect1_dropShadow_1259_2"/>
<feBlend mode="normal" in="SourceGraphic" in2="effect1_dropShadow_1259_2" result="shape"/>
</filter>
</defs>
</svg>
